<svg xmlns="http://www.w3.org/2000/svg" width="612" height="433" viewBox="0 0 612 433" version="1.1"><path d="M 0.017 48.750 L 0.034 97.500 2.115 94.250 C 4.502 90.523, 5.552 90.315, 8.920 92.905 C 11.161 94.627, 11.244 94.997, 10.040 97.904 C 8.273 102.170, 7.703 102.347, 3.577 99.913 L -0 97.802 -0 108.966 L 0 120.129 4.879 128.315 C 7.562 132.817, 10.989 138.694, 12.494 141.375 C 16.263 148.089, 21.593 153.756, 26.432 156.195 C 28.669 157.323, 30.633 158.361, 30.796 158.502 C 31.175 158.831, 21.936 182.236, 21.012 183.291 C 19.848 184.618, 7.735 178.893, 3.750 175.133 L 0 171.594 -0 222.762 C -0 272.634, 0.050 273.956, 1.969 274.983 C 3.051 275.563, 5.130 278.073, 6.589 280.561 C 8.848 284.417, 9.171 285.923, 8.771 290.745 C 8.346 295.870, 7.910 296.752, 4.151 300.088 L 0 303.772 0 368.386 L 0 433 7.250 432.994 C 14.281 432.987, 14.643 432.864, 19.250 428.916 C 24.699 424.246, 25.826 420, 21.617 420 C 20.099 420, 19.049 420.705, 18.726 421.940 C 18.271 423.680, 17.847 423.766, 14.609 422.772 C 8.775 420.982, 10.746 415.055, 17.886 412.916 C 21.151 411.938, 22.359 412.065, 26.279 413.799 C 34.285 417.341, 35.949 424.249, 30.242 430.250 L 27.626 433 59.768 433 L 91.909 433 92.567 429.495 C 93.271 425.740, 96.522 420.788, 104.051 412 C 112.548 402.083, 114.129 396.038, 109.450 391.359 C 107.465 389.374, 106.300 388.955, 104.200 389.470 C 100.192 390.452, 98.836 392.276, 98.250 397.471 C 97.784 401.613, 97.482 402.090, 95.612 401.641 C 94.450 401.363, 89.740 400.818, 85.144 400.429 L 76.789 399.723 77.438 395.612 C 79.214 384.363, 82.997 378.569, 91.351 374.300 C 95.702 372.077, 97.817 371.667, 105 371.649 C 117.448 371.619, 126.533 376.040, 132.119 384.849 C 134.543 388.671, 134.998 390.431, 134.990 395.946 C 134.977 404.852, 132.153 410.546, 122.814 420.500 C 118.685 424.900, 114.772 429.512, 114.119 430.750 L 112.930 433 134.965 433 L 157 433 157 428.082 C 157 421.563, 156.280 420, 153.280 420 C 151.054 420, 150.823 420.342, 151.221 423.050 C 151.584 425.528, 151.138 426.478, 148.841 428.113 C 145.585 430.432, 144.576 430.092, 143.227 426.221 C 140.876 419.478, 147.317 411.969, 155.398 412.032 C 162.709 412.088, 165.360 415.969, 164.845 425.863 L 164.500 432.500 203.267 432.762 C 238.489 433, 242.274 432.867, 244.654 431.307 C 246.095 430.363, 251.305 429.039, 256.231 428.365 C 265.887 427.044, 269 425.328, 269 421.324 C 269 419.767, 268.141 418.566, 266.490 417.814 C 264.345 416.836, 263.635 416.995, 261.600 418.906 L 259.219 421.143 255.359 416.526 C 253.237 413.986, 251.500 411.433, 251.500 410.853 C 251.500 409.264, 260.072 405, 263.267 405 C 269.759 405, 277.575 410.734, 280.604 417.718 C 282.233 421.472, 282.409 426.795, 281.025 430.435 L 280.050 433 316.890 433 L 353.731 433 351.996 427.739 C 351.041 424.845, 349.307 417.083, 348.143 410.489 C 345.098 393.248, 344.318 391.054, 339.516 386.253 C 336.176 382.912, 334.532 382, 331.854 382 C 327.629 382, 324.657 384, 323.025 387.941 C 321.315 392.069, 322.362 395.352, 326.989 400.372 L 330.910 404.626 320.614 414.887 L 310.318 425.147 305.506 419.824 C 302.860 416.896, 299.368 411.680, 297.745 408.234 C 295.081 402.571, 294.830 401.171, 295.148 393.710 C 295.597 383.187, 299.589 374.507, 307.851 366.090 C 323.751 349.891, 346.971 347.403, 360.406 360.460 C 368.526 368.352, 371.956 377.660, 373.503 396 C 374.633 409.386, 377.086 416.788, 382.373 422.765 L 384.377 425.030 380.507 428.993 L 376.638 432.956 447.087 432.986 L 517.536 433.017 519.445 429.473 C 524.484 420.116, 536.946 412.828, 547.998 412.774 C 560.695 412.713, 568.358 418.518, 572.384 431.250 C 572.863 432.764, 574.294 433, 582.994 433 L 593.051 433 591.526 430.050 C 587.400 422.071, 591.864 412.078, 599.579 412.022 C 601.377 412.009, 604.600 413.287, 607.329 415.094 C 611.745 418.020, 612 418.435, 612 422.709 L 612 427.230 609.250 425.420 C 603.589 421.695, 600.760 420.661, 599.098 421.710 C 596.429 423.394, 597.120 426.456, 600.250 426.816 C 602.566 427.083, 603 427.605, 603 430.121 C 603 433.062, 603.075 433.105, 607.750 432.805 L 612.500 432.500 612.738 327 C 612.869 268.975, 612.701 198.778, 612.365 171.006 L 611.755 120.513 607.833 125.006 C 605.676 127.478, 603.650 130.738, 603.331 132.250 C 602.775 134.880, 602.488 135, 596.745 135 L 590.740 135 591.246 130.506 C 591.573 127.610, 592.774 124.738, 594.626 122.425 C 602.501 112.593, 604.468 107.868, 601.800 105.200 C 598.646 102.046, 594 104.930, 594 110.041 C 594 111.612, 593.561 112.046, 592.418 111.607 C 591.548 111.273, 588.573 111, 585.807 111 L 580.777 111 581.464 107.250 C 582.414 102.063, 585.004 97.914, 588.952 95.253 C 593.205 92.387, 602.763 92.135, 608 94.752 L 611.500 96.500 612.038 108.500 C 612.333 115.100, 612.674 93.388, 612.794 60.250 L 613.013 0 606.756 0.079 C 603.315 0.122, 601.175 0.376, 602 0.644 C 602.825 0.911, 605.413 1.813, 607.750 2.647 L 612 4.165 612 40.976 C 612 70.864, 611.747 77.883, 610.657 78.301 C 604.209 80.776, 591.994 79.650, 575.500 75.062 C 567.184 72.749, 558.029 72.537, 552.500 74.529 C 550.300 75.321, 548.361 75.977, 548.191 75.985 C 547.698 76.009, 537 52.943, 537 51.857 C 537 51.317, 539.915 49.553, 543.478 47.937 C 551.458 44.319, 558.005 44.122, 573.002 47.049 C 591.938 50.745, 599.836 49.838, 604.912 43.385 C 607.722 39.813, 607.544 35.800, 604.411 32.077 C 601.268 28.341, 596.768 28.015, 590.101 31.040 C 587.682 32.137, 585.574 32.907, 585.417 32.751 C 584.589 31.922, 574.025 8.312, 574.014 7.263 C 573.998 5.867, 579.076 3.522, 586.500 1.496 C 591.257 0.198, 590.665 0.128, 574.292 0.066 L 557.084 0 554.542 4.338 C 553.144 6.724, 552 9.874, 552 11.338 C 552 13.819, 551.700 14, 547.582 14 C 545.152 14, 542.452 14.273, 541.582 14.607 C 540.279 15.107, 540 14.393, 540 10.557 C 540 7.996, 540.687 4.573, 541.526 2.950 L 543.051 -0 520.276 0.090 C 504.263 0.154, 498.468 0.460, 500.761 1.122 C 503.446 1.897, 503.931 2.455, 503.507 4.281 C 503.224 5.502, 502.369 9.563, 501.606 13.306 C 500.844 17.050, 499.982 20.352, 499.690 20.644 C 499.398 20.936, 496.575 20.638, 493.417 19.983 C 488.111 18.881, 486.944 18.080, 477.994 9.396 L 468.311 0 460.772 -0 C 453.954 -0, 453.181 0.201, 452.684 2.101 C 451.492 6.658, 456.110 11, 462.149 11 C 463.167 11, 464 11.175, 464 11.390 C 464 12.404, 459.932 31.402, 459.655 31.678 C 459.482 31.851, 456.914 31.273, 453.948 30.392 C 442.068 26.864, 435.471 18.851, 434.323 6.555 L 433.711 0 416.078 0 C 397.714 0, 395.860 0.377, 392.250 4.837 C 390.480 7.025, 390.684 11.665, 392.582 12.393 C 395.557 13.535, 397.030 12.999, 398.766 10.144 L 400.503 7.289 406.251 9.772 C 409.413 11.137, 412 12.612, 412 13.049 C 412 13.487, 410.519 15.792, 408.708 18.172 C 404.279 23.996, 398.962 25.934, 392.269 24.163 C 387.291 22.847, 381.971 19.182, 378.723 14.831 C 376.685 12.101, 376 5.936, 377.326 2.250 L 378.135 0 365 0 L 351.865 -0 352.551 2.250 C 352.928 3.487, 353.880 5.234, 354.666 6.131 C 355.938 7.584, 355.570 8.212, 351.312 11.852 L 346.528 15.941 344.295 13.220 C 341.849 10.241, 341.480 9.309, 340.542 3.750 L 339.909 0 334.642 0 C 330.065 0, 328.989 0.403, 326.437 3.073 L 323.500 6.146 320.907 3.049 L 318.313 -0.049 281.907 0.287 C 251.963 0.563, 244.524 0.911, 240 2.246 C 236.975 3.139, 228.425 4.352, 221 4.943 C 213.575 5.533, 205.721 6.509, 203.547 7.111 C 198.957 8.382, 193.415 13.500, 192.446 17.360 C 190.886 23.573, 197.003 29.849, 203.374 28.575 C 205.078 28.234, 208.139 26.616, 210.177 24.978 C 212.215 23.340, 214.247 22.031, 214.691 22.068 C 215.136 22.105, 219.405 26.943, 224.177 32.818 C 234.207 45.166, 234.260 44.380, 222.957 51.095 C 211.481 57.913, 199.766 58.492, 188.599 52.795 C 183.355 50.120, 173.848 40.997, 169.911 34.862 C 164.004 25.657, 161.420 11.996, 163.930 3.243 L 164.860 0 141.823 0 C 120.714 0, 118.840 0.140, 119.427 1.670 C 120.951 5.643, 112.646 6.256, 108.182 2.500 C 105.583 0.313, 104.259 0, 97.606 0 L 90 0 90.006 15.750 C 90.012 32.868, 90.684 36.781, 94.613 42.572 L 97.198 46.380 94.508 48.340 C 93.028 49.418, 88.234 53.169, 83.855 56.676 C 79.476 60.183, 75.457 62.783, 74.924 62.453 C 73.010 61.270, 66.319 51.431, 65.179 48.122 C 64.539 46.264, 63.542 37.489, 62.964 28.622 C 61.798 10.727, 61.164 7.443, 58.020 3.029 C 55.958 0.133, 55.546 -0, 48.592 -0 C 41.771 -0, 41.249 0.158, 40.161 2.547 C 39.522 3.948, 39 5.766, 39 6.587 C 39 8.648, 42.515 15.352, 44.427 16.939 C 45.292 17.657, 46 18.611, 46 19.057 C 46 19.504, 41.034 23.766, 34.964 28.528 C 22.467 38.332, 23.147 38.309, 17.587 29.124 C 12.734 21.107, 10.617 13.099, 11.437 5.856 L 12.099 0 6.050 0 L 0 0 0.017 48.750 M 0.463 49 C 0.463 75.675, 0.592 86.588, 0.749 73.250 C 0.907 59.913, 0.907 38.088, 0.749 24.750 C 0.592 11.413, 0.463 22.325, 0.463 49 M 128 9.500 L 128 16 134.500 16 L 141 16 141 9.500 L 141 3 134.500 3 L 128 3 128 9.500 M 272.452 6.461 C 270.578 10.945, 270.517 10.699, 273.950 12.474 C 277.911 14.522, 278.486 14.422, 279.839 11.453 C 281.634 7.515, 281.277 6.502, 277.452 4.678 L 273.904 2.986 272.452 6.461 M 512 3.390 C 512 3.604, 511.093 8.187, 509.985 13.575 C 508.876 18.962, 508.314 23.672, 508.735 24.043 C 509.156 24.413, 513.875 25.625, 519.221 26.736 C 528.096 28.580, 528.985 28.614, 529.425 27.128 C 530.341 24.033, 533.153 7.820, 532.827 7.511 C 532.510 7.209, 513.557 3, 512.517 3 C 512.233 3, 512 3.175, 512 3.390 M 299.989 11.026 C 298.923 13.600, 298.979 14.320, 300.368 15.854 C 302.821 18.565, 302.444 21, 299.571 21 C 297.786 21, 295.983 19.474, 292.777 15.250 C 287.548 8.360, 284.738 7.444, 283.115 12.100 C 282.135 14.912, 282.246 15.484, 284.012 16.721 C 285.120 17.497, 286.877 19.790, 287.916 21.816 C 292.468 30.691, 299.301 32.960, 305.009 27.492 C 310.865 21.881, 311.164 13.330, 305.640 9.460 C 302.580 7.317, 301.389 7.648, 299.989 11.026 M 354.231 16.396 L 349.579 20.791 353.533 25.146 C 355.708 27.541, 358.056 29.437, 358.751 29.360 C 360.134 29.207, 367.779 22.915, 367.915 21.818 C 368.034 20.865, 360.679 12.142, 359.692 12.064 C 359.247 12.029, 356.790 13.978, 354.231 16.396 M 542.750 19.716 C 540.078 20.121, 540 20.316, 540 26.566 L 540 33 545.750 32.985 C 548.913 32.976, 551.957 32.639, 552.515 32.235 C 553.085 31.822, 553.375 28.759, 553.176 25.250 L 552.822 19 549.161 19.150 C 547.148 19.232, 544.263 19.487, 542.750 19.716 M 128 23.802 C 128 25.405, 126.636 28.665, 124.946 31.100 C 123.267 33.520, 120.753 37.155, 119.361 39.178 C 114.039 46.911, 115.662 55.763, 123.333 60.839 C 126.663 63.043, 128.484 63.500, 133.927 63.500 C 144.692 63.500, 150.527 58.790, 151.665 49.184 L 152.291 43.897 145.895 44.199 L 139.500 44.500 139.187 47.749 C 138.809 51.669, 135.994 53.603, 133 52 C 129.178 49.955, 130.029 45.189, 135.752 36.582 C 139.254 31.315, 140.370 28.690, 140.426 25.582 L 140.500 21.500 134.250 21.202 L 128 20.905 128 23.802 M 254.979 29.792 C 245.942 33.206, 246.111 32.572, 251.510 42.812 L 256.296 51.890 260.108 49.945 C 265.038 47.430, 267.447 47.490, 269.961 50.189 C 272.698 53.126, 272.548 57.137, 269.597 59.909 C 266.330 62.978, 261.815 63.813, 253.500 62.884 C 240.265 61.407, 232.462 61.802, 227.527 64.199 C 225.037 65.409, 223 66.816, 223 67.325 C 223 67.835, 224.912 71.813, 227.250 76.166 C 230.833 82.838, 231.814 83.985, 233.500 83.469 C 242.348 80.765, 243.112 80.728, 252.306 82.554 C 268.877 85.844, 277.024 84.587, 284.830 77.535 C 292.488 70.616, 294.038 58.315, 288.715 46.689 C 281.836 31.663, 268.157 24.812, 254.979 29.792 M 411.678 35.598 L 408.876 38.196 412.120 40.588 C 415.122 42.803, 415.496 42.861, 417.144 41.369 C 419.307 39.412, 422 40.231, 422 42.846 C 422 45.373, 420.576 46.438, 413.829 48.963 C 406.189 51.821, 405.028 53.336, 408.028 56.529 C 410.689 59.362, 411.714 59.551, 413.921 57.617 C 414.790 56.856, 418.058 55.502, 421.184 54.608 C 430.328 51.993, 433.277 46.247, 429.040 39.299 C 425.093 32.825, 416.617 31.018, 411.678 35.598 M 329.624 39.577 C 315.444 44.106, 304.991 56.414, 300.756 73.570 C 298.842 81.324, 298.749 82.910, 299.837 89.257 C 302.087 102.376, 307.955 109.695, 321.655 116.470 C 326.462 118.847, 328.692 119.505, 329.145 118.678 C 331.862 113.717, 339.230 92.577, 338.345 92.282 C 334.369 90.956, 328.307 87.074, 326.640 84.785 C 324.888 82.381, 324.799 81.614, 325.860 78.072 C 327.272 73.360, 330.208 71, 334.657 71 C 342.462 71, 346.388 74.270, 356.269 89 C 367.672 106, 369.857 108.243, 378.575 111.903 C 382.781 113.668, 386.356 114.974, 386.521 114.806 C 386.686 114.638, 389.072 108.875, 391.823 102 L 396.825 89.500 392.978 87.819 C 386.009 84.773, 381.567 79.212, 370.699 59.926 C 361.396 43.415, 344.231 34.912, 329.624 39.577 M 452.486 45.663 C 447.544 47.626, 443.150 49.553, 442.722 49.944 C 442.130 50.485, 448.223 68.449, 449.442 69.758 C 450.071 70.433, 469 62.509, 468.996 61.572 C 468.992 60.296, 463.797 46.236, 462.429 43.797 C 461.556 42.242, 460.689 42.405, 452.486 45.663 M 34 43.364 C 34 43.580, 33.312 45.403, 32.470 47.417 L 30.941 51.077 34.438 52.539 C 36.362 53.342, 38.169 54, 38.454 54 C 39.086 54, 42.154 46.821, 41.712 46.378 C 41.086 45.753, 34 42.983, 34 43.364 M 28.300 56.394 C 27.860 57.160, 25.250 59.097, 22.500 60.698 C 19.576 62.401, 16.723 65.040, 15.629 67.055 C 13.891 70.257, 13.869 70.763, 15.319 74.228 C 18.541 81.925, 28.623 84.531, 34.077 79.077 C 37.810 75.344, 37.754 74.226, 33.750 72.513 C 30.750 71.230, 30.375 71.284, 28.878 73.218 C 26.792 75.911, 24 74.938, 24 71.519 C 24 69.541, 25.177 68.222, 29.293 65.589 C 32.204 63.727, 35.094 61.089, 35.715 59.726 C 36.716 57.529, 36.565 57.123, 34.375 56.125 C 31.086 54.626, 29.268 54.707, 28.300 56.394 M 98.452 59.738 C 95.165 62.357, 89.898 66.463, 86.749 68.863 C 83.599 71.263, 81.289 73.659, 81.616 74.188 C 83.711 77.577, 98.319 96.558, 99.032 96.818 C 99.927 97.143, 122.896 79.967, 122.963 78.922 C 123.015 78.114, 106.064 55.559, 105.164 55.238 C 104.760 55.094, 101.740 57.119, 98.452 59.738 M 511.016 60.625 C 504.150 63.655, 498.342 66.324, 498.111 66.556 C 497.441 67.226, 509.382 93.154, 510.587 93.645 C 512.267 94.331, 537.535 82.430, 537.236 81.094 C 536.445 77.564, 525.471 55.009, 524.568 55.057 C 523.980 55.089, 517.882 57.594, 511.016 60.625 M 400.065 60.909 L 397.994 63.817 401.192 66.508 L 404.389 69.199 407.133 65.849 L 409.876 62.500 407.188 60.286 C 403.626 57.352, 402.529 57.448, 400.065 60.909 M 204.337 75.128 L 195.174 79.990 200.337 89.496 C 204.090 96.405, 205.910 98.848, 207 98.441 C 207.825 98.132, 212.171 95.881, 216.659 93.437 L 224.817 88.995 219.659 79.504 C 216.821 74.285, 214.275 70.071, 214 70.140 C 213.725 70.210, 209.377 72.454, 204.337 75.128 M 462.813 73.641 L 454.126 77.111 454.691 83.850 C 455.172 89.591, 454.792 92.071, 452.128 100.591 C 447.658 114.884, 448.193 123.845, 454.003 132.004 C 457.367 136.729, 465.932 140.300, 473.811 140.263 C 491.157 140.181, 505.356 128.398, 505.460 114 C 505.506 107.703, 503.279 99.003, 501.620 98.995 C 500.221 98.988, 484.804 105.040, 483.657 106.046 C 483.194 106.453, 483.337 107.762, 483.976 108.955 C 486.823 114.274, 484.282 121, 479.427 121 C 471.754 121, 469.060 112.920, 472.412 99.960 C 475.856 86.649, 476.064 83.419, 473.926 76.497 C 472.823 72.924, 471.825 70.039, 471.710 70.086 C 471.594 70.133, 467.591 71.733, 462.813 73.641 M 148.992 78.524 C 147.625 82.666, 148.176 83.616, 152.691 84.911 C 155.612 85.749, 155.797 85.622, 156.873 82.028 C 158.340 77.134, 158.382 77.313, 155.593 76.613 C 154.269 76.280, 152.514 75.751, 151.693 75.436 C 150.638 75.031, 149.846 75.937, 148.992 78.524 M 177.161 80.547 C 175.546 84.090, 175.683 84.923, 178.218 86.975 C 180.115 88.512, 180.242 89.004, 179.095 90.385 C 176.584 93.411, 175.689 92.877, 167.966 83.750 C 164.041 79.112, 161.571 78.925, 160.096 83.155 C 159.149 85.870, 159.261 86.494, 160.898 87.641 C 161.943 88.373, 164.055 90.957, 165.589 93.383 C 168.690 98.284, 172.519 101, 176.328 101 C 182.091 101, 188.174 91.815, 186.591 85.505 C 185.873 82.648, 181.492 78, 179.514 78 C 178.858 78, 177.799 79.146, 177.161 80.547 M 60.411 88.891 C 56.782 91.104, 52.798 95.876, 53.291 97.419 C 53.481 98.014, 55.776 99.670, 58.391 101.101 L 63.145 103.701 66.045 100.801 C 68.468 98.378, 69.279 98.079, 70.973 98.985 C 73.738 100.466, 73.621 105.074, 70.750 107.742 C 69.513 108.893, 65.404 111.306, 61.621 113.105 C 57.073 115.267, 54.109 117.413, 52.875 119.438 C 51.848 121.122, 51.006 122.725, 51.005 123 C 51.003 123.275, 53.303 124.793, 56.116 126.372 L 61.230 129.245 63.365 126.627 C 64.539 125.187, 68.425 122.840, 72 121.411 C 80.832 117.880, 84.497 114.884, 86.547 109.517 C 88.173 105.257, 88.175 104.746, 86.571 100.547 C 82.522 89.945, 68.748 83.808, 60.411 88.891 M 541.071 91.727 C 533.636 95.572, 531.161 104.350, 536.047 109.551 C 538.992 112.685, 539.409 112.639, 542.088 108.877 C 544.106 106.042, 544.159 105.668, 542.656 104.827 C 540.642 103.700, 540.519 101.644, 542.373 100.105 C 544.760 98.125, 546.898 100.015, 549.099 106.050 C 550.272 109.267, 552.122 112.705, 553.210 113.690 C 555.126 115.424, 555.266 115.393, 557.587 112.694 C 559.794 110.128, 559.866 109.725, 558.489 107.624 C 557.667 106.368, 556.328 103.100, 555.515 100.362 C 552.991 91.863, 547.341 88.485, 541.071 91.727 M 402.224 106.675 C 399.324 114.197, 397.299 120.667, 397.725 121.053 C 399.348 122.526, 424.235 132.098, 424.852 131.487 C 426.208 130.144, 435.765 104.468, 435.148 103.827 C 434.421 103.073, 409.381 93, 408.232 93 C 407.828 93, 405.124 99.154, 402.224 106.675 M 12.718 100.143 C 11.018 103.130, 11.017 103.361, 12.695 105.216 C 13.663 106.285, 15.589 109.465, 16.977 112.284 C 18.365 115.102, 20.747 118.311, 22.272 119.416 C 24.855 121.286, 25.330 121.324, 29.239 119.962 C 34.647 118.078, 38 113.286, 38 107.441 C 38 103.906, 37.473 102.735, 34.915 100.582 C 31.382 97.609, 30.753 97.769, 28.961 102.094 C 27.825 104.837, 27.871 105.349, 29.331 106.165 C 31.356 107.299, 31.485 109.353, 29.627 110.895 C 27.387 112.753, 25.068 111.073, 22.353 105.625 C 20.146 101.196, 16.626 97.080, 15 97.029 C 14.725 97.020, 13.698 98.421, 12.718 100.143 M 0.382 109.500 C 0.384 116.100, 0.546 118.670, 0.741 115.211 C 0.937 111.752, 0.936 106.352, 0.738 103.211 C 0.540 100.070, 0.380 102.900, 0.382 109.500 M 258.192 101.725 C 256.855 106.083, 257.568 107.122, 262.043 107.341 C 264.851 107.478, 265.495 107.042, 266.672 104.207 C 268.032 100.936, 268.018 100.905, 264.552 99.457 C 259.719 97.438, 259.482 97.523, 258.192 101.725 M 118.836 102.919 C 111.312 105.325, 106.971 108.122, 101.794 113.901 C 96.304 120.027, 94.018 126.303, 93.288 137.250 L 92.704 146 99.602 145.994 C 103.396 145.991, 110.100 145.708, 114.500 145.367 L 122.500 144.746 122.208 139.623 C 121.799 132.437, 124.296 127.797, 129.227 126.579 C 136.562 124.767, 141.484 129.629, 141.355 138.558 C 141.278 143.898, 137.988 151.163, 130.966 161.500 C 129.472 163.700, 126.618 168.575, 124.625 172.333 C 121.240 178.713, 121 179.757, 121 188.083 L 121 197 125.250 196.995 C 127.588 196.992, 133.887 196.699, 139.250 196.344 L 149 195.698 149 191.527 C 149 184.634, 151.743 178.646, 160.569 166.271 C 170.087 152.926, 173.014 146.391, 173.744 136.857 C 174.972 120.836, 165.087 107.651, 148.068 102.609 C 140.653 100.412, 126.195 100.565, 118.836 102.919 M 253 112.632 C 251.625 114.006, 248.588 116.831, 246.250 118.910 C 242.810 121.970, 242 123.344, 242 126.123 C 242 132.459, 247.383 137, 254.895 137 C 261.569 137, 268.154 129.009, 262.623 127.620 C 261.283 127.284, 259.510 126.749, 258.683 126.432 C 257.721 126.063, 256.938 126.622, 256.504 127.986 C 255.597 130.845, 251.621 130.347, 251.190 127.321 C 250.959 125.698, 252.236 124.073, 256.190 120.955 C 263.996 114.801, 264.714 111.536, 258.469 110.586 C 256.251 110.249, 254.867 110.767, 253 112.632 M 561.156 114.003 C 559.970 115.607, 559 117.357, 559 117.891 C 559 118.892, 564.913 123.502, 565.372 122.859 C 565.512 122.662, 566.605 121.210, 567.800 119.632 C 570.235 116.419, 570.109 115.926, 566.126 113.090 L 563.312 111.086 561.156 114.003 M 195.325 124.802 C 191.379 127.936, 187.812 130.842, 187.398 131.260 C 186.984 131.679, 187.785 133.254, 189.178 134.760 C 190.570 136.267, 193.622 140.078, 195.959 143.229 L 200.209 148.958 207.854 142.810 C 212.059 139.428, 215.887 136.329, 216.360 135.921 C 217.367 135.054, 205.194 118.975, 203.588 119.052 C 202.990 119.081, 199.271 121.668, 195.325 124.802 M 338.341 137.888 L 328.181 148.500 338.549 159.500 L 348.916 170.500 359.458 160.018 C 365.256 154.253, 370 149.070, 370 148.500 C 370 147.412, 349.819 126.899, 348.983 127.138 C 348.717 127.214, 343.928 132.051, 338.341 137.888 M 44.086 133.015 C 42.389 135.773, 41.002 138.361, 41.003 138.765 C 41.010 140.174, 51.956 145.447, 52.826 144.460 C 53.291 143.932, 54.870 141.395, 56.335 138.823 L 58.999 134.146 53.628 131.073 C 50.674 129.383, 48.012 128, 47.714 128 C 47.416 128, 45.783 130.257, 44.086 133.015 M 289.008 134.177 C 283.423 137.065, 280 141.993, 280 147.148 L 280 151 285.855 151 C 291.564 151, 291.733 150.921, 292.613 147.854 C 294.486 141.325, 300.225 141.526, 300.798 148.142 C 301.037 150.902, 300.093 153.055, 296.018 159.041 C 291.703 165.378, 290.982 167.102, 291.220 170.500 C 291.482 174.250, 291.712 174.520, 294.888 174.824 C 300.327 175.343, 302.682 174.338, 303.303 171.235 C 303.610 169.699, 306.117 165.522, 308.873 161.951 C 315.153 153.817, 316.983 147.870, 314.896 142.386 C 311.542 133.574, 298.297 129.375, 289.008 134.177 M 553.652 138.748 C 553.386 139.712, 552.892 142.541, 552.555 145.035 C 551.953 149.485, 552.003 149.588, 555.221 150.535 C 557.948 151.337, 558.500 151.987, 558.500 154.391 C 558.500 161.213, 552.586 160.307, 543.526 152.097 C 539.153 148.134, 535.879 146.012, 533.426 145.552 C 531.429 145.177, 529.589 145.078, 529.336 145.330 C 529.084 145.583, 528.623 148.248, 528.313 151.253 C 527.763 156.585, 527.820 156.741, 530.654 157.730 C 532.252 158.287, 535.796 161.080, 538.530 163.938 C 545.022 170.724, 549.028 173.116, 554.241 173.315 C 566.040 173.766, 574.411 157.854, 568.656 145.914 C 565.977 140.355, 554.696 134.967, 553.652 138.748 M 588.770 146.118 C 588.500 149.628, 588.416 152.662, 588.584 152.861 C 588.751 153.059, 591.768 153.453, 595.289 153.735 L 601.689 154.249 602.346 147.960 C 602.708 144.501, 602.842 141.509, 602.644 141.311 C 602.446 141.113, 599.354 140.678, 595.772 140.343 L 589.260 139.735 588.770 146.118 M 432 145 C 432 148.613, 432.245 149, 434.531 149 C 437.787 149, 438.962 151.824, 436.465 153.649 C 434.202 155.304, 431.872 154.645, 426.669 150.875 C 424.486 149.294, 421.417 148, 419.850 148 C 417.192 148, 417 148.269, 417 152 C 417 155.142, 417.375 156.001, 418.750 156.002 C 419.712 156.004, 423.148 157.804, 426.385 160.002 C 433.267 164.678, 436.644 165.012, 440.889 161.440 C 448.638 154.920, 444.352 141, 434.596 141 C 432.234 141, 432 141.361, 432 145 M 510.642 143.711 C 510.348 145.245, 509.832 148.334, 509.495 150.576 L 508.883 154.652 515.436 155.631 C 522.835 156.737, 522.395 157.132, 523.504 148.375 L 524.153 143.250 519.327 142.568 C 516.672 142.193, 513.752 141.669, 512.838 141.404 C 511.642 141.056, 511.026 141.703, 510.642 143.711 M 215.598 147.063 C 212.901 149.259, 209.559 151.883, 208.170 152.894 L 205.645 154.734 207.764 157.428 C 210.563 160.985, 211.927 168.465, 211.790 179.500 C 211.656 190.289, 212.972 195.480, 217.292 201.208 C 226.128 212.925, 244.034 212.968, 257.007 201.304 C 267.317 192.034, 270.231 179.975, 264.692 169.500 C 261.425 163.322, 259.392 160.683, 258.256 161.146 C 256.533 161.847, 243.066 172.516, 243.033 173.206 C 243.015 173.594, 244.125 175.569, 245.500 177.595 C 248.522 182.049, 248.645 184.355, 246 187 C 243.249 189.751, 238.485 189.576, 235.524 186.615 C 232.502 183.593, 231.344 179.006, 230.483 166.639 C 230.106 161.215, 229.420 155.465, 228.960 153.861 C 228.115 150.913, 222.396 142.970, 221.166 143.036 C 220.800 143.055, 218.294 144.868, 215.598 147.063 M 405 152 L 405 156 409.500 156 L 414 156 414 152 L 414 148 409.500 148 L 405 148 405 152 M 367.791 167.758 L 358.135 177.500 361.081 180.979 C 365.004 185.610, 367.800 193.384, 368.534 201.699 C 370.397 222.805, 373.366 232.102, 380.830 240.199 C 387.435 247.366, 392.752 249.500, 404 249.500 C 412.623 249.500, 414.127 249.203, 420.288 246.285 C 440.104 236.898, 451.887 215.233, 446.646 197.819 C 445.159 192.879, 438.750 182.918, 434.545 179.014 L 431.868 176.527 421.934 186.771 C 416.470 192.405, 412 197.266, 412 197.572 C 412 197.878, 413.296 199.220, 414.881 200.553 C 418.685 203.754, 421.231 209.230, 420.420 212.465 C 419.566 215.864, 414.487 220.001, 411.173 219.996 C 407.407 219.991, 402.681 216.837, 400.042 212.569 C 398.573 210.192, 396.602 203.009, 394.353 191.840 C 392.461 182.440, 390.068 173.118, 389.037 171.124 C 388.005 169.131, 384.976 165.366, 382.304 162.758 L 377.447 158.015 367.791 167.758 M 39.208 169.167 C 37.532 173.200, 35.014 179.554, 33.611 183.287 L 31.062 190.073 33.281 190.918 C 34.501 191.382, 40.594 193.900, 46.819 196.512 C 53.279 199.222, 58.505 200.883, 58.992 200.381 C 60.711 198.606, 70.080 173.681, 69.302 172.949 C 68.558 172.249, 47.524 163.469, 43.878 162.337 C 42.641 161.953, 41.532 163.575, 39.208 169.167 M 89.250 165.745 C 87.463 166.635, 86 167.986, 86 168.747 C 86 169.917, 87.586 173.692, 88.561 174.842 C 89.091 175.468, 96 172.612, 96 171.767 C 96 170.712, 93.204 163.978, 92.801 164.064 C 92.635 164.099, 91.037 164.856, 89.250 165.745 M 489.712 167.078 C 477.290 169.623, 465.311 178.432, 460.856 188.298 C 458.864 192.710, 458.507 195.120, 458.504 204.167 C 458.502 210.033, 458.725 215.041, 459 215.295 C 459.275 215.549, 465.896 214.822, 473.714 213.679 L 487.928 211.603 487.326 205.842 C 486.366 196.661, 489.493 192, 496.613 192 C 503.073 192, 506.420 197.248, 505.802 206.406 C 505.464 211.407, 504.305 214.653, 499.341 224.500 C 490.877 241.290, 489.625 245.503, 490.457 254.386 C 490.829 258.352, 491.440 262.074, 491.816 262.656 C 492.288 263.387, 496.607 263.085, 505.712 261.685 L 518.923 259.655 518.916 253.577 C 518.907 245.378, 519.927 242.452, 526.917 230.627 C 537.808 212.205, 539.953 204.393, 537.431 192.342 C 535.113 181.260, 528.015 173.420, 516.282 168.980 C 509.634 166.464, 497.092 165.566, 489.712 167.078 M 0.465 223 C 0.465 251.325, 0.593 262.913, 0.749 248.750 C 0.906 234.588, 0.906 211.413, 0.749 197.250 C 0.593 183.088, 0.465 194.675, 0.465 223 M 92.955 177.227 C 90.908 178.043, 90.396 178.950, 90.336 181.871 C 90.295 183.867, 89.930 188.200, 89.524 191.500 C 88.876 196.781, 89.045 197.825, 90.937 200.213 C 93.933 203.994, 98.652 204.690, 104.312 202.186 C 109.548 199.870, 111 197.686, 111 192.125 C 111 187.297, 110.253 186.701, 106.147 188.251 C 103.645 189.195, 103 190.015, 103 192.251 C 103 195.622, 100.496 196.924, 98.279 194.707 C 96.928 193.357, 96.875 192.313, 97.893 187.140 C 99.131 180.844, 98.574 175.926, 96.642 176.106 C 96.014 176.165, 94.355 176.669, 92.955 177.227 M 580.500 178.077 C 568.770 179.229, 558.231 186.451, 553.947 196.273 C 550.828 203.424, 550.167 215.597, 552.462 223.591 C 557.595 241.468, 571.198 254.933, 585.881 256.672 C 594.466 257.689, 612 252.498, 612 248.939 C 612 247.885, 609.418 241.835, 606.262 235.495 C 601.886 226.704, 600.166 224.123, 599.012 224.621 C 589.676 228.646, 587.182 229.196, 584.352 227.854 C 582.784 227.109, 580.675 224.813, 579.668 222.750 C 577.891 219.114, 577.891 218.886, 579.668 215.278 C 583.123 208.258, 590.232 206.360, 605.750 208.313 L 612 209.099 612 195.630 L 612 182.160 604.750 180.476 C 594.509 178.096, 587.432 177.396, 580.500 178.077 M 290 186.500 L 290 193 296.369 193 L 302.738 193 303.358 189.250 C 303.699 187.188, 303.983 184.262, 303.989 182.750 C 304 180.011, 303.972 180, 297 180 L 290 180 290 186.500 M 183.500 185.713 C 182.400 185.978, 180.274 187.349, 178.776 188.760 L 176.052 191.325 179.207 193.653 C 182.127 195.807, 182.496 195.861, 184.144 194.369 C 186.307 192.412, 189 193.231, 189 195.846 C 189 198.261, 187.622 199.387, 182 201.566 C 173.865 204.719, 172.114 207.534, 176.500 210.408 C 178.702 211.851, 179.268 211.875, 181.250 210.604 C 182.488 209.812, 185.484 208.640, 187.908 208 C 197.382 205.502, 200.837 197.525, 195.297 190.941 C 193.111 188.343, 187.013 184.610, 185.782 185.116 C 185.627 185.180, 184.600 185.449, 183.500 185.713 M 320.256 192.645 C 313.420 196.015, 310.994 204.559, 315.416 209.694 L 317.832 212.500 320.416 210.076 C 323.024 207.629, 323.844 205, 322 205 C 320.694 205, 320.702 201.302, 322.009 200.494 C 324.571 198.911, 327.018 201.256, 328.604 206.814 C 330.556 213.655, 333.633 217.550, 335.717 215.820 C 338.479 213.527, 339.131 211.135, 337.642 208.760 C 336.862 207.517, 335.908 204.700, 335.520 202.500 C 333.792 192.677, 327.903 188.875, 320.256 192.645 M 132.746 207.993 C 126.281 208.368, 120.823 208.860, 120.615 209.087 C 120.408 209.314, 120.473 216.162, 120.759 224.303 L 121.279 239.107 135.890 238.432 C 143.925 238.061, 150.868 237.422, 151.317 237.012 C 151.766 236.602, 151.813 229.682, 151.422 221.633 L 150.710 207 147.605 207.156 C 145.897 207.242, 139.211 207.619, 132.746 207.993 M 19.256 211.029 C 18.022 211.525, 16.120 213.399, 15.029 215.192 L 13.046 218.454 15.273 219.692 C 18.457 221.461, 20.314 221.282, 22.250 219.021 C 24.362 216.554, 27 217.409, 27 220.561 C 27 222.186, 25.539 224.023, 22.250 226.531 C 18.107 229.691, 15.150 233.196, 15.035 235.082 C 15.016 235.402, 16.676 236.179, 18.724 236.807 C 21.603 237.691, 22.618 237.672, 23.196 236.725 C 24.815 234.071, 25.638 233.311, 29.301 231.084 C 33.965 228.249, 36.327 224.811, 36.220 221.016 C 36.004 213.432, 26.782 208.003, 19.256 211.029 M 167.928 214.101 L 165.720 217.202 168.610 219.565 C 170.200 220.865, 171.807 221.944, 172.182 221.964 C 172.557 221.984, 173.873 220.582, 175.107 218.849 L 177.351 215.699 174.620 213.349 C 171.100 210.322, 170.577 210.381, 167.928 214.101 M 73.800 219.687 C 70.885 223.946, 68.167 227.960, 67.761 228.607 C 67.283 229.368, 70.178 231.931, 75.961 235.865 L 84.900 241.946 90.288 234.223 C 93.251 229.975, 95.978 225.972, 96.349 225.327 C 96.901 224.367, 86.787 216.368, 80.300 212.634 C 79.536 212.195, 77.170 214.762, 73.800 219.687 M 339.561 216.253 L 336.982 219.500 340.039 222.279 C 343.412 225.345, 343.976 225.247, 346.943 221.080 L 348.979 218.221 345.560 215.613 L 342.141 213.005 339.561 216.253 M 267.811 216.470 C 261.520 218.203, 256.862 221.214, 252.095 226.630 C 248.147 231.115, 241.276 245.606, 242.509 246.847 C 242.866 247.206, 249.198 249.347, 256.580 251.605 L 270.001 255.709 271.093 251.605 C 271.693 249.347, 273.291 246.037, 274.643 244.250 C 276.770 241.439, 277.702 241, 281.551 241 C 288.525 241, 291.951 245.752, 290.670 253.647 C 289.818 258.897, 286.083 263.105, 273.153 273.384 C 258.187 285.282, 255.739 288.149, 253.009 296.971 C 251.791 300.907, 250.953 304.272, 251.147 304.448 C 251.859 305.094, 274.827 312, 276.265 312 C 277.096 312, 278 310.751, 278.317 309.163 C 279.403 303.737, 286.348 296.614, 298.339 288.628 C 316.997 276.204, 323.454 267.050, 323.484 252.985 C 323.498 246.491, 323.053 244.562, 320.207 238.775 C 311.707 221.492, 287.301 211.102, 267.811 216.470 M 60.147 240.087 C 57.264 243.735, 52.530 246.215, 44 248.545 C 26.452 253.338, 17.778 261.705, 17.604 274.005 C 17.394 288.828, 33.288 304.206, 48.808 304.196 C 56.832 304.191, 62.123 301.740, 68.004 295.306 C 70.758 292.292, 72.798 289.482, 72.537 289.060 C 71.830 287.916, 57.306 278, 56.337 278 C 55.876 278, 54.243 279.575, 52.707 281.500 C 49.558 285.447, 45.981 286.076, 42.109 283.364 C 40.113 281.965, 39.852 281.130, 40.319 277.614 C 41.039 272.185, 44.411 269.434, 55.666 265.092 C 60.525 263.218, 66.165 260.858, 68.200 259.847 C 72.094 257.914, 79.359 249.389, 78.415 247.862 C 77.870 246.981, 63.369 236.948, 62.795 237.055 C 62.633 237.086, 61.441 238.450, 60.147 240.087 M 11.970 242.592 C 10.608 246.718, 11.224 247.695, 15.760 248.602 C 18.578 249.166, 19.079 248.923, 19.979 246.556 C 21.580 242.345, 21.227 241.275, 17.851 240.098 C 13.405 238.548, 13.288 238.598, 11.970 242.592 M 194.427 242.309 C 189.690 246.384, 190.199 258.533, 195.238 261.647 C 197.297 262.920, 206.209 263.809, 205.024 262.624 C 204.461 262.061, 204 260.145, 204 258.366 C 204 255.582, 203.618 255.089, 201.250 254.816 C 199.318 254.594, 198.408 253.856, 198.192 252.336 C 197.694 248.841, 201.231 248.501, 207.628 251.430 C 214.158 254.420, 219.562 254.906, 218.607 252.418 C 218.273 251.548, 218 249.748, 218 248.418 C 218 246.659, 217.450 246, 215.981 246 C 214.871 246, 211.432 244.650, 208.340 243 C 201.594 239.400, 198.016 239.222, 194.427 242.309 M 225 244.943 C 221.600 245.484, 221.510 245.615, 221.849 249.500 C 222.041 251.700, 222.318 253.627, 222.465 253.783 C 222.613 253.939, 224.556 253.775, 226.785 253.418 C 230.793 252.777, 230.831 252.731, 230.288 249.135 C 229.594 244.535, 229.254 244.266, 225 244.943 M 351.194 255.004 C 350.537 260.606, 350.217 265.543, 350.484 265.975 C 350.751 266.406, 355.248 267.081, 360.478 267.473 C 365.707 267.865, 370.321 268.256, 370.731 268.343 C 371.478 268.501, 372.146 264.752, 373.398 253.370 L 374.072 247.239 368.536 246.620 C 365.491 246.279, 360.613 245.734, 357.694 245.409 L 352.389 244.818 351.194 255.004 M 449.775 247.559 C 446.162 249.520, 444.293 252.919, 446.147 254.161 C 450.530 257.096, 451.331 257.267, 452.595 255.539 C 454.416 253.049, 457.500 253.976, 457.500 257.014 C 457.500 259.025, 456.381 260.094, 451.646 262.609 C 443.231 267.077, 441.859 269.870, 447.026 272.011 C 449.572 273.065, 450.324 273.019, 451.776 271.719 C 452.724 270.870, 456.049 269.052, 459.165 267.680 C 465.357 264.953, 467 262.879, 467 257.788 C 467 253.483, 464.839 250.469, 459.974 247.987 C 455.382 245.644, 453.453 245.563, 449.775 247.559 M 161.413 256.553 C 160.597 258.507, 159.684 261.330, 159.385 262.825 C 158.874 265.381, 159.204 265.675, 164.893 267.721 C 168.221 268.919, 171.122 269.584, 171.339 269.199 C 172.586 266.989, 175.109 257.776, 174.605 257.272 C 174.077 256.744, 164.114 253, 163.237 253 C 163.051 253, 162.230 254.599, 161.413 256.553 M 549.500 254.791 C 544 255.581, 539.350 256.363, 539.167 256.530 C 538.630 257.019, 541.177 276.431, 541.881 277.212 C 542.479 277.875, 561.932 275.401, 562.779 274.555 C 563.331 274.002, 560.810 254.612, 560.097 253.928 C 559.769 253.613, 555 254.001, 549.500 254.791 M 90.991 265.242 C 90.171 266.475, 89.168 268, 88.762 268.632 C 88.319 269.321, 89.388 270.821, 91.435 272.383 L 94.846 274.985 97.100 271.339 L 99.353 267.693 96.426 265.351 C 92.837 262.480, 92.827 262.480, 90.991 265.242 M 586.333 269.417 C 580.933 271.832, 579 274.491, 579 279.500 C 579 283.381, 579.284 284, 581.066 284 C 584.529 284, 587 282.098, 587 279.433 C 587 276.322, 589.617 275.189, 591.788 277.359 C 593.298 278.869, 593.295 279.463, 591.746 285.275 C 589.997 291.839, 590.310 296, 592.552 296 C 595.581 296, 599.189 293.935, 598.644 292.514 C 598.336 291.712, 598.999 288.006, 600.117 284.278 C 601.689 279.038, 601.916 276.888, 601.120 274.802 C 599.123 269.575, 591.878 266.937, 586.333 269.417 M 100.161 272.996 C 98.120 275.757, 98.067 276.172, 99.477 278.324 C 100.318 279.608, 101.690 282.961, 102.526 285.774 C 105.408 295.480, 113.770 298.163, 120.419 291.515 C 124.654 287.280, 125.814 282.476, 123.625 278.243 C 121.344 273.830, 118.960 273.313, 116.296 276.653 C 114.265 279.201, 114.212 279.577, 115.662 281.179 C 117.623 283.346, 116.739 286, 114.054 286 C 111.802 286, 109.778 283.254, 108.082 277.897 C 107.455 275.915, 105.914 273.329, 104.658 272.148 L 102.374 270.003 100.161 272.996 M 155.114 274.060 C 153.870 275.743, 150.489 278.631, 147.601 280.479 C 136.236 287.748, 133.058 294.513, 137.140 302.741 C 143.848 316.260, 163.050 317.472, 169.608 304.791 C 171.657 300.828, 171.003 299.617, 166 298.118 C 163.686 297.425, 161.228 296.641, 160.539 296.377 C 159.825 296.103, 158.733 297.231, 158 299.001 C 156.901 301.654, 156.263 302.061, 153.615 301.803 C 151.555 301.601, 150.400 300.887, 150.170 299.671 C 149.387 295.544, 151.204 292.820, 158.089 287.797 C 169.036 279.809, 170.659 275.094, 163.322 272.594 C 157.343 270.557, 157.759 270.483, 155.114 274.060 M 505.507 273.170 C 498.360 274.261, 492.363 275.304, 492.180 275.487 C 491.282 276.385, 495.566 304.280, 496.666 304.702 C 497.861 305.161, 525.044 301.290, 525.777 300.557 C 526.095 300.238, 524.068 284.264, 522.438 274.250 C 521.820 270.451, 522.883 270.519, 505.507 273.170 M 439.034 276.177 C 437.919 278.004, 437.006 279.754, 437.004 280.065 C 437 280.692, 444.126 284.257, 444.455 283.793 C 449.379 276.854, 449.409 276.975, 441.780 273.209 C 441.384 273.013, 440.148 274.349, 439.034 276.177 M 349.407 277.637 C 348.112 283.029, 345.751 286.508, 337.881 294.627 C 332.761 299.908, 329.088 304.751, 327.390 308.459 C 321.630 321.042, 326.386 333.619, 339.312 339.982 C 356.883 348.632, 376.634 342.101, 381.389 326.068 C 383.859 317.740, 383.604 316.204, 379.627 315.458 C 377.771 315.110, 373.175 314.752, 369.412 314.662 L 362.570 314.500 361.912 318.438 C 361.230 322.515, 358.097 326, 355.112 326 C 352.167 326, 349.098 323.038, 348.447 319.568 C 347.578 314.938, 349.549 311.240, 358.512 300.687 C 367.567 290.025, 367.791 289.626, 368.604 282.712 C 369.359 276.285, 369.665 276.490, 357.797 275.449 L 350.095 274.774 349.407 277.637 M 211.923 280.923 C 209.959 282.887, 209 284.856, 209 286.923 C 209 289.837, 209.208 290, 212.930 290 C 216.245 290, 216.911 289.647, 217.180 287.750 C 217.613 284.704, 221.581 284.104, 222.484 286.948 C 222.921 288.327, 222.118 290.798, 220.070 294.378 C 218.381 297.329, 217 300.926, 217 302.372 C 217 304.771, 217.348 305, 221 305 C 224.349 305, 225 304.671, 225 302.976 C 225 301.863, 226.575 298.662, 228.500 295.864 C 233.005 289.314, 233.171 285.017, 229.077 280.923 C 226.535 278.382, 225.416 278, 220.500 278 C 215.584 278, 214.465 278.382, 211.923 280.923 M 555.500 284.112 C 552.750 284.601, 549.038 285.246, 547.250 285.546 C 544.248 286.049, 544 286.381, 544 289.896 C 544 295.200, 542.447 299.252, 536.871 308.500 C 534.218 312.900, 531.442 318.900, 530.702 321.833 C 529.039 328.427, 529.979 336.612, 532.952 341.422 C 537.578 348.907, 549.838 353.882, 560.554 352.623 C 576.826 350.710, 585.914 342.031, 586.708 327.644 C 587.268 317.506, 587.198 317.452, 575.510 318.999 L 565.814 320.282 566.251 323.891 C 566.866 328.977, 565.338 332.687, 562.172 333.790 C 558.305 335.138, 555.139 333.577, 553.427 329.479 C 551.516 324.907, 552.456 321.283, 559.048 307.804 C 564.041 297.593, 565.140 291.857, 563.370 285.250 C 562.714 282.804, 562.796 282.816, 555.500 284.112 M 395.615 290.088 C 389.664 294.769, 388.379 301.920, 392.589 306.923 C 394.013 308.615, 395.475 309.994, 395.839 309.988 C 396.203 309.981, 397.473 308.472, 398.663 306.635 C 400.778 303.367, 400.784 303.260, 398.933 301.675 C 396.518 299.607, 397.474 297, 400.649 297 C 402.677 297, 403.565 298.073, 405.966 303.424 C 407.551 306.958, 409.752 310.332, 410.857 310.923 C 412.561 311.835, 413.195 311.534, 415.046 308.935 C 417.212 305.894, 417.214 305.855, 415.281 303.686 C 414.210 302.484, 412.548 299.367, 411.588 296.761 C 408.545 288.497, 401.421 285.521, 395.615 290.088 M 452.094 299.108 C 448.199 300.286, 438 306.567, 438 307.789 C 438 309.072, 450.096 323, 451.211 323 C 451.761 323, 453.548 321.875, 455.182 320.500 C 458.888 317.382, 462.014 317.321, 464.826 320.314 C 467.587 323.254, 467.600 326.979, 464.858 329.922 C 461.765 333.242, 457.475 334.745, 448.982 335.485 C 435.664 336.646, 430.832 337.962, 425.750 341.813 C 423.137 343.792, 421 345.577, 421 345.780 C 421 345.983, 423.798 349.432, 427.218 353.445 L 433.435 360.740 437.208 358.244 C 440.530 356.045, 442.627 355.636, 454.741 354.818 C 470.374 353.762, 476.609 351.677, 482.356 345.584 C 490.866 336.561, 489.630 320.887, 479.496 309.312 C 472.127 300.896, 460.500 296.566, 452.094 299.108 M 595.128 299.076 C 593.098 299.889, 592.848 300.489, 593.396 303.232 C 594.309 307.793, 595.284 308.388, 599.401 306.900 C 603.437 305.440, 603.416 305.490, 601.902 301.149 C 600.755 297.858, 599.291 297.410, 595.128 299.076 M 0.459 368 C 0.471 432.371, 0.480 432.672, 0.985 385.500 C 1.268 359.100, 1.725 339.282, 2 341.461 C 2.460 345.108, 2.799 345.483, 6.280 346.201 C 8.359 346.630, 13.347 348.785, 17.365 350.991 C 28.936 357.341, 37.381 355.986, 42.148 347.016 C 46.328 339.150, 43.357 326.238, 36.374 321.922 C 33.315 320.032, 23.784 318.798, 22.564 320.135 C 22.380 320.336, 22.677 323.227, 23.223 326.561 C 24.180 332.406, 24.313 332.608, 26.946 332.221 C 29.813 331.800, 33 334.053, 33 336.500 C 33 338.633, 30.090 341, 27.467 341 C 26.152 341, 21.666 339.381, 17.497 337.403 C 11.530 334.570, 8.975 333.880, 5.483 334.158 L 1.047 334.511 0.747 318.505 C 0.582 309.702, 0.452 331.975, 0.459 368 M 78.286 320.730 C 75.993 327.754, 73.978 334.351, 73.808 335.392 C 73.546 336.999, 75.617 337.995, 87.570 342.007 L 101.641 346.730 106.415 332.293 C 109.041 324.352, 111.034 317.725, 110.845 317.564 C 110.655 317.404, 104.650 315.346, 97.500 312.990 C 90.350 310.634, 84.040 308.538, 83.478 308.333 C 82.915 308.128, 80.579 313.707, 78.286 320.730 M 220.167 308.736 C 216.787 309.038, 215.962 309.458, 216.417 310.643 C 216.737 311.479, 217 313.252, 217 314.582 C 217 316.736, 217.436 317, 221 317 L 225 317 225 312.500 C 225 310.025, 224.887 308.079, 224.750 308.175 C 224.613 308.271, 222.550 308.524, 220.167 308.736 M 417.666 311.234 L 415.832 314.454 418.666 316.722 C 420.225 317.970, 421.807 318.992, 422.182 318.995 C 422.557 318.998, 423.874 317.581, 425.109 315.847 L 427.354 312.694 424.427 310.352 C 420.602 307.292, 419.855 307.389, 417.666 311.234 M 178.497 316.181 C 178.226 316.906, 176.220 323.109, 174.039 329.964 C 170.057 342.483, 170.031 343.940, 173.790 343.985 C 176.746 344.020, 183.137 348.230, 184.107 350.780 C 186.546 357.197, 182.031 364, 175.333 364 C 167.869 364, 162.231 359.375, 150.790 343.868 C 142.025 331.986, 138.235 328.718, 129.541 325.547 C 125.341 324.016, 121.752 322.928, 121.566 323.131 C 121.282 323.441, 115.803 340.254, 113.543 347.750 C 113.037 349.431, 113.271 350, 114.472 350 C 117.440 350, 123.605 353.820, 127.380 357.999 C 129.439 360.278, 133.951 366.498, 137.407 371.822 C 144.768 383.160, 151.827 390.097, 159.782 393.807 C 183.225 404.742, 210.278 382.352, 210.297 352 C 210.307 336.365, 203.694 325.727, 189.939 319.251 C 181.207 315.140, 179.098 314.574, 178.497 316.181 M 240.787 329.250 C 238.275 337.087, 236.302 343.594, 236.403 343.709 C 236.826 344.194, 263.021 352, 264.225 352 C 266.031 352, 275.314 324.029, 273.682 323.506 C 266.037 321.053, 246.234 315, 245.853 315 C 245.579 315, 243.299 321.413, 240.787 329.250 M 307.683 323.809 L 304.992 326.618 308.018 329.517 L 311.045 332.417 314.172 329.289 L 317.300 326.162 314.400 323.613 C 312.805 322.210, 311.247 321.049, 310.937 321.032 C 310.627 321.014, 309.163 322.264, 307.683 323.809 M 300.638 330.496 C 299.614 331.259, 296.343 332.188, 293.368 332.560 C 283.284 333.820, 279.253 340.819, 284.097 348.656 C 287.999 354.971, 295.692 356.889, 300.507 352.747 L 303.126 350.495 300.056 347.554 C 297.678 345.276, 296.718 344.882, 295.793 345.807 C 295.137 346.463, 293.760 347, 292.734 347 C 291.287 347, 290.938 346.381, 291.184 344.250 C 291.502 341.482, 293.050 340.669, 302 338.572 C 303.375 338.249, 305.384 337.306, 306.464 336.476 C 308.386 334.998, 308.365 334.904, 305.464 332.037 C 302.827 329.431, 302.295 329.261, 300.638 330.496 M 56.693 332.181 C 54.189 333.094, 53.959 333.544, 54.561 336.352 C 55.537 340.910, 55.860 341.187, 59.345 340.453 C 63.832 339.509, 64.371 338.653, 63.030 334.592 C 61.775 330.788, 61.158 330.554, 56.693 332.181 M 603.500 340.503 C 601.300 341.281, 598.504 343.068, 597.286 344.473 C 594.593 347.580, 592.285 354.712, 593.582 355.918 C 594.087 356.388, 597.087 357.081, 600.250 357.458 C 605.827 358.123, 606 358.072, 606 355.772 C 606 352.948, 607.715 351, 610.200 351 C 611.733 351, 612 350.111, 612 345 C 612 339.431, 611.838 339.003, 609.750 339.044 C 608.513 339.068, 605.700 339.725, 603.500 340.503 M 59.267 344.025 C 57.953 344.553, 57.252 345.493, 57.564 346.305 C 57.855 347.065, 57.173 350.024, 56.047 352.881 C 53.268 359.931, 53.382 364.473, 56.414 367.505 C 61.316 372.407, 69.618 371.620, 74.526 365.787 C 76.668 363.241, 77.088 361.930, 76.642 359.181 C 76.336 357.295, 75.931 355.598, 75.742 355.409 C 75.553 355.220, 73.719 355.580, 71.666 356.210 C 69.288 356.940, 67.988 357.926, 68.082 358.928 C 68.406 362.363, 67.945 363.131, 65.750 362.820 C 62.822 362.404, 62.319 358.446, 64.413 352.302 C 67.017 344.659, 65.151 341.658, 59.267 344.025 M 404.797 357.661 L 397.095 364.246 403.790 372.123 C 407.472 376.455, 410.846 380, 411.287 380 C 411.728 380, 415.648 377.020, 419.999 373.379 L 427.909 366.757 421.212 358.879 C 417.529 354.545, 414.062 351.017, 413.508 351.038 C 412.953 351.059, 409.034 354.039, 404.797 357.661 M 528 360.999 C 523.325 363.187, 519.079 365.123, 518.565 365.300 C 517.609 365.631, 526.438 385, 527.545 385 C 529.644 385, 546 376.465, 546 375.370 C 546 373.785, 537.794 356.995, 537.027 357.011 C 536.737 357.017, 532.675 358.812, 528 360.999 M 607 367.465 C 604.104 370.905, 602.270 374.180, 601.855 376.655 C 601.501 378.770, 601.276 380.562, 601.355 380.637 C 601.435 380.712, 603.862 381.092, 606.750 381.481 L 612 382.188 612 372.094 C 612 366.542, 611.888 362.027, 611.750 362.060 C 611.612 362.093, 609.475 364.525, 607 367.465 M 225.196 365.488 C 220.970 369.044, 218.999 373.872, 219.005 380.651 C 219.014 390.975, 225.173 397.981, 234.250 397.993 L 239 398 239 393.082 C 239 386.774, 238.329 385.101, 236.038 385.700 C 233.272 386.424, 230 384.237, 230 381.665 C 230 375.613, 235.388 375.577, 246.447 381.557 C 253.348 385.288, 255.475 386.002, 258.188 385.495 L 261.500 384.875 261.161 378.938 C 260.837 373.262, 260.705 373, 258.161 372.994 C 255.305 372.987, 253.759 372.265, 244.559 366.635 C 236.946 361.977, 229.867 361.558, 225.196 365.488 M 24.625 367.436 C 20.317 369.008, 14.581 374.065, 12.415 378.200 C 10.397 382.052, 10.667 388.426, 13.045 393.089 C 15.948 398.778, 17.493 398.978, 22.200 394.271 C 26.180 390.291, 26.199 390.234, 24.497 387.636 C 21.947 383.744, 23.172 380, 26.996 380 C 31.040 380, 32.660 382.822, 34.590 393.223 C 35.895 400.261, 36.707 402.303, 39.115 404.610 L 42.049 407.421 46.132 403.339 C 50.145 399.326, 50.186 399.213, 48.545 396.710 C 47.628 395.309, 46.249 389.985, 45.482 384.878 C 44.637 379.256, 43.355 374.613, 42.231 373.108 C 37.764 367.125, 31.240 365.023, 24.625 367.436 M 466.224 369.410 C 461.498 370.951, 457.178 373.510, 455.227 375.925 C 448.683 384.026, 447.563 396.047, 452.368 406.610 C 457.400 417.673, 467.275 425, 477.151 425 C 480.644 425, 491.428 421.906, 492.833 420.500 C 493.528 419.805, 484.861 402, 483.828 402 C 483.410 402, 481.490 402.753, 479.560 403.673 C 475.361 405.675, 471.637 404.491, 469.858 400.588 C 466.058 392.247, 475.475 388.122, 491.538 391.092 C 501.593 392.950, 509.940 392.608, 514.750 390.140 C 517.087 388.941, 519 387.750, 519 387.494 C 519 387.239, 517.096 383.190, 514.768 378.497 C 511.570 372.048, 510.166 370.124, 509.018 370.619 C 502.788 373.310, 499.984 373.390, 490.673 371.145 C 478.351 368.175, 471.504 367.689, 466.224 369.410 M 270.618 371.740 L 265.736 372.120 266.418 378.777 C 266.793 382.438, 267.190 385.466, 267.300 385.507 C 267.410 385.547, 270.313 385.409, 273.750 385.201 L 280 384.822 280 381.036 C 280 374.675, 278.922 370.981, 277.125 371.180 C 276.231 371.279, 273.303 371.531, 270.618 371.740 M 573.142 380.794 C 571.095 381.118, 570.864 381.569, 571.392 384.209 C 571.726 385.881, 572 387.644, 572 388.125 C 572 388.606, 573.139 389, 574.531 389 C 577.642 389, 578.828 391.600, 576.691 393.737 C 575.249 395.180, 574.612 395.129, 569.466 393.160 C 564.045 391.085, 558.948 390.386, 557.777 391.556 C 557.472 391.862, 557.697 393.662, 558.279 395.556 C 559.067 398.124, 559.898 399, 561.547 399 C 562.763 399, 566.292 400.160, 569.388 401.577 C 577.469 405.277, 582.210 403.838, 584.854 396.883 C 586.049 393.742, 584.628 386.352, 582.345 383.829 C 580.409 381.690, 576.216 380.307, 573.142 380.794 M 599.499 389.638 C 599.150 391.762, 598.638 394.721, 598.361 396.213 C 597.808 399.192, 598.064 399.316, 607.250 400.507 L 612 401.123 612 394.061 L 612 387 609.125 387 C 607.544 387, 604.874 386.725, 603.191 386.388 C 600.273 385.805, 600.103 385.954, 599.499 389.638 M 548.250 392.706 C 545.911 393.156, 545.430 395.269, 546.638 399.778 C 547.033 401.255, 547.820 401.903, 548.874 401.621 C 549.768 401.382, 551.690 400.922, 553.145 400.600 C 555.693 400.036, 555.753 399.866, 554.774 396.007 C 553.741 391.937, 553.327 391.728, 548.250 392.706 M 424.630 398.250 C 423.530 402.357, 423.938 403.852, 426.250 404.180 C 428.979 404.568, 429.898 408.442, 427.480 409.369 C 425.596 410.092, 422.964 408.858, 417.856 404.855 C 415.852 403.285, 413.039 402, 411.606 402 C 409.258 402, 409 402.374, 409 405.781 C 409 408.948, 409.446 409.756, 411.750 410.759 C 413.262 411.418, 416.447 413.541, 418.828 415.478 C 427.554 422.579, 436 418.158, 436 406.489 C 436 402.691, 435.468 401.314, 433.077 398.923 C 429.490 395.336, 425.497 395.018, 424.630 398.250 M 397 404.488 C 397 408.593, 397.218 409, 399.418 409 C 400.748 409, 402.487 409.250, 403.282 409.555 C 404.347 409.963, 404.903 409.007, 405.397 405.921 C 405.765 403.618, 405.939 401.631, 405.783 401.506 C 405.627 401.381, 403.587 400.985, 401.250 400.627 L 397 399.976 397 404.488 M 217.750 402.572 C 216.238 403.393, 215 404.463, 215 404.951 C 215 406.099, 218.346 411.987, 219 411.990 C 219.275 411.991, 220.959 411.103, 222.743 410.015 L 225.986 408.038 224.308 404.519 C 222.446 400.615, 221.742 400.406, 217.750 402.572 M 48.986 407.514 L 44.555 412.029 49.278 416.751 L 54 421.474 58.722 416.751 L 63.445 412.029 59.014 407.514 C 56.577 405.032, 54.321 403, 54 403 C 53.679 403, 51.423 405.032, 48.986 407.514 M 194 407.760 C 187.304 409.966, 185.714 419.327, 191.011 425.360 C 194.592 429.438, 197.979 430.492, 202.601 428.967 C 206.543 427.666, 206.530 427.705, 204.298 423.928 C 202.952 421.649, 201.968 421.094, 199.587 421.274 C 197.311 421.445, 196.481 421.029, 196.180 419.566 C 195.517 416.341, 198.567 415.038, 205.374 415.639 C 213.361 416.345, 215.990 414.768, 213.800 410.588 C 212.418 407.949, 211.988 407.817, 203.927 407.548 C 199.292 407.393, 194.825 407.489, 194 407.760" stroke="none" fill="#df222a" fill-rule="evenodd"/><path d="M 11.442 5.621 C 10.557 12.701, 12.781 21.232, 17.565 29.107 C 23.156 38.311, 22.465 38.334, 34.964 28.528 C 41.034 23.766, 46 19.504, 46 19.057 C 46 18.611, 45.292 17.657, 44.427 16.939 C 43.562 16.221, 41.946 13.854, 40.837 11.680 C 38.915 7.913, 38.834 5.662, 40.478 1.750 C 41.159 0.130, 40.135 -0, 26.679 -0 L 12.144 -0 11.442 5.621 M 58.020 3.029 C 61.164 7.443, 61.798 10.727, 62.964 28.622 C 63.542 37.489, 64.539 46.264, 65.179 48.122 C 66.319 51.431, 73.010 61.270, 74.924 62.453 C 75.457 62.783, 79.476 60.183, 83.855 56.676 C 88.234 53.169, 93.028 49.418, 94.508 48.340 L 97.198 46.380 94.613 42.572 C 90.684 36.781, 90.012 32.868, 90.006 15.750 L 90 0 72.932 0 L 55.864 0 58.020 3.029 M 108.306 2.532 C 112.563 6.277, 120.945 5.627, 119.427 1.670 C 118.915 0.337, 117.445 0.006, 112.143 0.032 L 105.500 0.063 108.306 2.532 M 164.416 1.136 C 164.029 1.761, 163.491 5.380, 163.219 9.177 C 162.274 22.388, 167.764 34.939, 179.169 45.640 C 192.671 58.308, 207.671 60.176, 222.957 51.095 C 234.260 44.380, 234.207 45.166, 224.177 32.818 C 219.405 26.943, 215.136 22.105, 214.691 22.068 C 214.247 22.031, 212.215 23.340, 210.177 24.978 C 208.139 26.616, 205.078 28.234, 203.374 28.575 C 197.003 29.849, 190.886 23.573, 192.446 17.360 C 193.423 13.467, 199.004 8.345, 203.626 7.101 C 205.829 6.508, 213.452 5.550, 220.566 4.972 C 227.680 4.395, 235.750 3.478, 238.500 2.935 C 250.865 0.492, 245.698 0.030, 205.809 0.015 C 176.491 0.004, 164.922 0.318, 164.416 1.136 M 319.910 1.832 C 322.078 5.882, 323.501 6.130, 326.518 2.982 L 329.374 0 324.152 0 C 319.399 0, 319.018 0.165, 319.910 1.832 M 340.603 4.250 C 340.947 6.588, 342.370 10.196, 343.764 12.270 C 346.583 16.461, 345.997 16.595, 353.242 10.099 C 355.615 7.972, 355.799 7.429, 354.611 6.070 C 353.855 5.207, 352.928 3.488, 352.551 2.250 C 351.940 0.246, 351.216 -0, 345.921 -0 L 339.976 -0 340.603 4.250 M 377.021 3.435 C 375.261 8.770, 377.145 14.077, 382.461 18.757 C 392.034 27.183, 402.470 26.856, 408.938 17.927 C 410.622 15.602, 412 13.375, 412 12.977 C 412 12.580, 409.413 11.137, 406.251 9.772 L 400.503 7.289 398.766 10.144 C 396.141 14.461, 391 13.759, 391 9.084 C 391 6.059, 392.327 4.074, 395.973 1.646 C 398.349 0.064, 398.053 0, 388.300 0 L 378.155 -0 377.021 3.435 M 434.323 6.555 C 435.471 18.851, 442.068 26.864, 453.948 30.392 C 456.914 31.273, 459.482 31.851, 459.655 31.678 C 459.932 31.402, 464 12.404, 464 11.390 C 464 11.175, 463.167 11, 462.149 11 C 456.110 11, 451.492 6.658, 452.684 2.101 C 453.214 0.072, 452.897 0, 443.472 0 L 433.711 0 434.323 6.555 M 478.078 9.419 C 486.954 18.099, 488.079 18.875, 493.408 19.981 C 496.571 20.637, 499.398 20.936, 499.690 20.644 C 499.982 20.352, 500.844 17.050, 501.606 13.306 C 502.369 9.563, 503.222 5.509, 503.503 4.299 C 504.258 1.043, 499.164 0.007, 482.500 0.031 L 468.500 0.051 478.078 9.419 M 541.526 2.950 C 540.687 4.573, 540 7.996, 540 10.557 C 540 14.393, 540.279 15.107, 541.582 14.607 C 542.452 14.273, 545.152 14, 547.582 14 C 551.700 14, 552 13.819, 552 11.338 C 552 9.874, 553.144 6.724, 554.542 4.338 L 557.084 0 550.068 -0 C 543.309 -0, 542.995 0.109, 541.526 2.950 M 586.500 1.436 C 578.904 3.600, 573.998 5.889, 574.014 7.263 C 574.025 8.312, 584.589 31.922, 585.417 32.751 C 585.574 32.907, 587.682 32.137, 590.101 31.040 C 596.768 28.015, 601.268 28.341, 604.411 32.077 C 607.544 35.800, 607.722 39.813, 604.912 43.385 C 599.836 49.838, 591.938 50.745, 573.002 47.049 C 558.005 44.122, 551.458 44.319, 543.478 47.937 C 539.915 49.553, 537 51.317, 537 51.857 C 537 52.943, 547.698 76.009, 548.191 75.985 C 548.361 75.977, 550.300 75.321, 552.500 74.529 C 558.029 72.537, 567.184 72.749, 575.500 75.062 C 591.994 79.650, 604.209 80.776, 610.657 78.301 C 611.747 77.883, 612 70.868, 612 41.002 L 612 4.217 607.750 2.493 C 602.001 0.162, 592.614 -0.305, 586.500 1.436 M 128 9.500 L 128 16 134.500 16 L 141 16 141 9.500 L 141 3 134.500 3 L 128 3 128 9.500 M 272.452 6.461 C 270.578 10.945, 270.517 10.699, 273.950 12.474 C 277.911 14.522, 278.486 14.422, 279.839 11.453 C 281.634 7.515, 281.277 6.502, 277.452 4.678 L 273.904 2.986 272.452 6.461 M 512 3.390 C 512 3.604, 511.093 8.187, 509.985 13.575 C 508.876 18.962, 508.314 23.672, 508.735 24.043 C 509.156 24.413, 513.875 25.625, 519.221 26.736 C 528.096 28.580, 528.985 28.614, 529.425 27.128 C 530.341 24.033, 533.153 7.820, 532.827 7.511 C 532.510 7.209, 513.557 3, 512.517 3 C 512.233 3, 512 3.175, 512 3.390 M 299.989 11.026 C 298.923 13.600, 298.979 14.320, 300.368 15.854 C 302.821 18.565, 302.444 21, 299.571 21 C 297.786 21, 295.983 19.474, 292.777 15.250 C 287.548 8.360, 284.738 7.444, 283.115 12.100 C 282.135 14.912, 282.246 15.484, 284.012 16.721 C 285.120 17.497, 286.877 19.790, 287.916 21.816 C 292.468 30.691, 299.301 32.960, 305.009 27.492 C 310.865 21.881, 311.164 13.330, 305.640 9.460 C 302.580 7.317, 301.389 7.648, 299.989 11.026 M 354.231 16.396 L 349.579 20.791 353.533 25.146 C 355.708 27.541, 358.056 29.437, 358.751 29.360 C 360.134 29.207, 367.779 22.915, 367.915 21.818 C 368.034 20.865, 360.679 12.142, 359.692 12.064 C 359.247 12.029, 356.790 13.978, 354.231 16.396 M 542.750 19.716 C 540.078 20.121, 540 20.316, 540 26.566 L 540 33 545.750 32.985 C 548.913 32.976, 551.957 32.639, 552.515 32.235 C 553.085 31.822, 553.375 28.759, 553.176 25.250 L 552.822 19 549.161 19.150 C 547.148 19.232, 544.263 19.487, 542.750 19.716 M 128 23.802 C 128 25.405, 126.636 28.665, 124.946 31.100 C 123.267 33.520, 120.753 37.155, 119.361 39.178 C 114.039 46.911, 115.662 55.763, 123.333 60.839 C 126.663 63.043, 128.484 63.500, 133.927 63.500 C 144.692 63.500, 150.527 58.790, 151.665 49.184 L 152.291 43.897 145.895 44.199 L 139.500 44.500 139.187 47.749 C 138.809 51.669, 135.994 53.603, 133 52 C 129.178 49.955, 130.029 45.189, 135.752 36.582 C 139.254 31.315, 140.370 28.690, 140.426 25.582 L 140.500 21.500 134.250 21.202 L 128 20.905 128 23.802 M 254.979 29.792 C 245.942 33.206, 246.111 32.572, 251.510 42.812 L 256.296 51.890 260.108 49.945 C 265.038 47.430, 267.447 47.490, 269.961 50.189 C 272.698 53.126, 272.548 57.137, 269.597 59.909 C 266.330 62.978, 261.815 63.813, 253.500 62.884 C 240.265 61.407, 232.462 61.802, 227.527 64.199 C 225.037 65.409, 223 66.816, 223 67.325 C 223 67.835, 224.912 71.813, 227.250 76.166 C 230.833 82.838, 231.814 83.985, 233.500 83.469 C 242.348 80.765, 243.112 80.728, 252.306 82.554 C 268.877 85.844, 277.024 84.587, 284.830 77.535 C 292.488 70.616, 294.038 58.315, 288.715 46.689 C 281.836 31.663, 268.157 24.812, 254.979 29.792 M 411.678 35.598 L 408.876 38.196 412.120 40.588 C 415.122 42.803, 415.496 42.861, 417.144 41.369 C 419.307 39.412, 422 40.231, 422 42.846 C 422 45.373, 420.576 46.438, 413.829 48.963 C 406.189 51.821, 405.028 53.336, 408.028 56.529 C 410.689 59.362, 411.714 59.551, 413.921 57.617 C 414.790 56.856, 418.058 55.502, 421.184 54.608 C 430.328 51.993, 433.277 46.247, 429.040 39.299 C 425.093 32.825, 416.617 31.018, 411.678 35.598 M 329.624 39.577 C 315.444 44.106, 304.991 56.414, 300.756 73.570 C 298.842 81.324, 298.749 82.910, 299.837 89.257 C 302.087 102.376, 307.955 109.695, 321.655 116.470 C 326.462 118.847, 328.692 119.505, 329.145 118.678 C 331.862 113.717, 339.230 92.577, 338.345 92.282 C 334.369 90.956, 328.307 87.074, 326.640 84.785 C 324.888 82.381, 324.799 81.614, 325.860 78.072 C 327.272 73.360, 330.208 71, 334.657 71 C 342.462 71, 346.388 74.270, 356.269 89 C 367.672 106, 369.857 108.243, 378.575 111.903 C 382.781 113.668, 386.356 114.974, 386.521 114.806 C 386.686 114.638, 389.072 108.875, 391.823 102 L 396.825 89.500 392.978 87.819 C 386.009 84.773, 381.567 79.212, 370.699 59.926 C 361.396 43.415, 344.231 34.912, 329.624 39.577 M 452.486 45.663 C 447.544 47.626, 443.150 49.553, 442.722 49.944 C 442.130 50.485, 448.223 68.449, 449.442 69.758 C 450.071 70.433, 469 62.509, 468.996 61.572 C 468.992 60.296, 463.797 46.236, 462.429 43.797 C 461.556 42.242, 460.689 42.405, 452.486 45.663 M 34 43.364 C 34 43.580, 33.312 45.403, 32.470 47.417 L 30.941 51.077 34.438 52.539 C 36.362 53.342, 38.169 54, 38.454 54 C 39.086 54, 42.154 46.821, 41.712 46.378 C 41.086 45.753, 34 42.983, 34 43.364 M 28.300 56.394 C 27.860 57.160, 25.250 59.097, 22.500 60.698 C 19.576 62.401, 16.723 65.040, 15.629 67.055 C 13.891 70.257, 13.869 70.763, 15.319 74.228 C 18.541 81.925, 28.623 84.531, 34.077 79.077 C 37.810 75.344, 37.754 74.226, 33.750 72.513 C 30.750 71.230, 30.375 71.284, 28.878 73.218 C 26.792 75.911, 24 74.938, 24 71.519 C 24 69.541, 25.177 68.222, 29.293 65.589 C 32.204 63.727, 35.094 61.089, 35.715 59.726 C 36.716 57.529, 36.565 57.123, 34.375 56.125 C 31.086 54.626, 29.268 54.707, 28.300 56.394 M 98.452 59.738 C 95.165 62.357, 89.898 66.463, 86.749 68.863 C 83.599 71.263, 81.289 73.659, 81.616 74.188 C 83.711 77.577, 98.319 96.558, 99.032 96.818 C 99.927 97.143, 122.896 79.967, 122.963 78.922 C 123.015 78.114, 106.064 55.559, 105.164 55.238 C 104.760 55.094, 101.740 57.119, 98.452 59.738 M 511.016 60.625 C 504.150 63.655, 498.342 66.324, 498.111 66.556 C 497.441 67.226, 509.382 93.154, 510.587 93.645 C 512.267 94.331, 537.535 82.430, 537.236 81.094 C 536.445 77.564, 525.471 55.009, 524.568 55.057 C 523.980 55.089, 517.882 57.594, 511.016 60.625 M 400.065 60.909 L 397.994 63.817 401.192 66.508 L 404.389 69.199 407.133 65.849 L 409.876 62.500 407.188 60.286 C 403.626 57.352, 402.529 57.448, 400.065 60.909 M 204.337 75.128 L 195.174 79.990 200.337 89.496 C 204.090 96.405, 205.910 98.848, 207 98.441 C 207.825 98.132, 212.171 95.881, 216.659 93.437 L 224.817 88.995 219.659 79.504 C 216.821 74.285, 214.275 70.071, 214 70.140 C 213.725 70.210, 209.377 72.454, 204.337 75.128 M 462.813 73.641 L 454.126 77.111 454.691 83.850 C 455.172 89.591, 454.792 92.071, 452.128 100.591 C 447.658 114.884, 448.193 123.845, 454.003 132.004 C 457.367 136.729, 465.932 140.300, 473.811 140.263 C 491.157 140.181, 505.356 128.398, 505.460 114 C 505.506 107.703, 503.279 99.003, 501.620 98.995 C 500.221 98.988, 484.804 105.040, 483.657 106.046 C 483.194 106.453, 483.337 107.762, 483.976 108.955 C 486.823 114.274, 484.282 121, 479.427 121 C 471.754 121, 469.060 112.920, 472.412 99.960 C 475.856 86.649, 476.064 83.419, 473.926 76.497 C 472.823 72.924, 471.825 70.039, 471.710 70.086 C 471.594 70.133, 467.591 71.733, 462.813 73.641 M 148.992 78.524 C 147.625 82.666, 148.176 83.616, 152.691 84.911 C 155.612 85.749, 155.797 85.622, 156.873 82.028 C 158.340 77.134, 158.382 77.313, 155.593 76.613 C 154.269 76.280, 152.514 75.751, 151.693 75.436 C 150.638 75.031, 149.846 75.937, 148.992 78.524 M 177.161 80.547 C 175.546 84.090, 175.683 84.923, 178.218 86.975 C 180.115 88.512, 180.242 89.004, 179.095 90.385 C 176.584 93.411, 175.689 92.877, 167.966 83.750 C 164.041 79.112, 161.571 78.925, 160.096 83.155 C 159.149 85.870, 159.261 86.494, 160.898 87.641 C 161.943 88.373, 164.055 90.957, 165.589 93.383 C 168.690 98.284, 172.519 101, 176.328 101 C 182.091 101, 188.174 91.815, 186.591 85.505 C 185.873 82.648, 181.492 78, 179.514 78 C 178.858 78, 177.799 79.146, 177.161 80.547 M 60.411 88.891 C 56.782 91.104, 52.798 95.876, 53.291 97.419 C 53.481 98.014, 55.776 99.670, 58.391 101.101 L 63.145 103.701 66.045 100.801 C 68.468 98.378, 69.279 98.079, 70.973 98.985 C 73.738 100.466, 73.621 105.074, 70.750 107.742 C 69.513 108.893, 65.404 111.306, 61.621 113.105 C 57.073 115.267, 54.109 117.413, 52.875 119.438 C 51.848 121.122, 51.006 122.725, 51.005 123 C 51.003 123.275, 53.303 124.793, 56.116 126.372 L 61.230 129.245 63.365 126.627 C 64.539 125.187, 68.425 122.840, 72 121.411 C 80.832 117.880, 84.497 114.884, 86.547 109.517 C 88.173 105.257, 88.175 104.746, 86.571 100.547 C 82.522 89.945, 68.748 83.808, 60.411 88.891 M 541.071 91.727 C 533.636 95.572, 531.161 104.350, 536.047 109.551 C 538.992 112.685, 539.409 112.639, 542.088 108.877 C 544.106 106.042, 544.159 105.668, 542.656 104.827 C 540.642 103.700, 540.519 101.644, 542.373 100.105 C 544.760 98.125, 546.898 100.015, 549.099 106.050 C 550.272 109.267, 552.122 112.705, 553.210 113.690 C 555.126 115.424, 555.266 115.393, 557.587 112.694 C 559.794 110.128, 559.866 109.725, 558.489 107.624 C 557.667 106.368, 556.328 103.100, 555.515 100.362 C 552.991 91.863, 547.341 88.485, 541.071 91.727 M 3.381 92.250 C 2.976 92.938, 2.033 94.458, 1.286 95.630 C 0.032 97.596, 0.205 97.923, 3.541 99.891 C 7.704 102.348, 8.271 102.175, 10.040 97.904 C 11.244 94.997, 11.161 94.627, 8.920 92.905 C 6.077 90.719, 4.400 90.521, 3.381 92.250 M 402.224 106.675 C 399.324 114.197, 397.299 120.667, 397.725 121.053 C 399.348 122.526, 424.235 132.098, 424.852 131.487 C 426.208 130.144, 435.765 104.468, 435.148 103.827 C 434.421 103.073, 409.381 93, 408.232 93 C 407.828 93, 405.124 99.154, 402.224 106.675 M 589.054 95.168 C 585.006 97.915, 582.420 102.032, 581.464 107.250 L 580.777 111 585.807 111 C 588.573 111, 591.548 111.273, 592.418 111.607 C 593.561 112.046, 594 111.612, 594 110.041 C 594 104.930, 598.646 102.046, 601.800 105.200 C 604.468 107.868, 602.501 112.593, 594.626 122.425 C 592.774 124.738, 591.573 127.610, 591.246 130.506 L 590.740 135 596.745 135 C 602.488 135, 602.775 134.880, 603.331 132.250 C 603.650 130.738, 605.712 127.475, 607.913 125 L 611.915 120.500 612.177 146 C 612.359 163.739, 612.546 167.239, 612.792 157.500 C 612.986 149.800, 612.836 133.014, 612.459 120.199 L 611.773 96.897 609.195 95.208 C 607.576 94.148, 603.993 93.391, 599.559 93.174 C 593.470 92.877, 592.026 93.151, 589.054 95.168 M 12.718 100.143 C 11.018 103.130, 11.017 103.361, 12.695 105.216 C 13.663 106.285, 15.589 109.465, 16.977 112.284 C 18.365 115.102, 20.747 118.311, 22.272 119.416 C 24.855 121.286, 25.330 121.324, 29.239 119.962 C 34.647 118.078, 38 113.286, 38 107.441 C 38 103.906, 37.473 102.735, 34.915 100.582 C 31.382 97.609, 30.753 97.769, 28.961 102.094 C 27.825 104.837, 27.871 105.349, 29.331 106.165 C 31.356 107.299, 31.485 109.353, 29.627 110.895 C 27.387 112.753, 25.068 111.073, 22.353 105.625 C 20.146 101.196, 16.626 97.080, 15 97.029 C 14.725 97.020, 13.698 98.421, 12.718 100.143 M 258.192 101.725 C 256.855 106.083, 257.568 107.122, 262.043 107.341 C 264.851 107.478, 265.495 107.042, 266.672 104.207 C 268.032 100.936, 268.018 100.905, 264.552 99.457 C 259.719 97.438, 259.482 97.523, 258.192 101.725 M 118.836 102.919 C 111.312 105.325, 106.971 108.122, 101.794 113.901 C 96.304 120.027, 94.018 126.303, 93.288 137.250 L 92.704 146 99.602 145.994 C 103.396 145.991, 110.100 145.708, 114.500 145.367 L 122.500 144.746 122.208 139.623 C 121.799 132.437, 124.296 127.797, 129.227 126.579 C 136.562 124.767, 141.484 129.629, 141.355 138.558 C 141.278 143.898, 137.988 151.163, 130.966 161.500 C 129.472 163.700, 126.618 168.575, 124.625 172.333 C 121.240 178.713, 121 179.757, 121 188.083 L 121 197 125.250 196.995 C 127.588 196.992, 133.887 196.699, 139.250 196.344 L 149 195.698 149 191.527 C 149 184.634, 151.743 178.646, 160.569 166.271 C 170.087 152.926, 173.014 146.391, 173.744 136.857 C 174.972 120.836, 165.087 107.651, 148.068 102.609 C 140.653 100.412, 126.195 100.565, 118.836 102.919 M 253 112.632 C 251.625 114.006, 248.588 116.831, 246.250 118.910 C 242.810 121.970, 242 123.344, 242 126.123 C 242 132.459, 247.383 137, 254.895 137 C 261.569 137, 268.154 129.009, 262.623 127.620 C 261.283 127.284, 259.510 126.749, 258.683 126.432 C 257.721 126.063, 256.938 126.622, 256.504 127.986 C 255.597 130.845, 251.621 130.347, 251.190 127.321 C 250.959 125.698, 252.236 124.073, 256.190 120.955 C 263.996 114.801, 264.714 111.536, 258.469 110.586 C 256.251 110.249, 254.867 110.767, 253 112.632 M 561.156 114.003 C 559.970 115.607, 559 117.357, 559 117.891 C 559 118.892, 564.913 123.502, 565.372 122.859 C 565.512 122.662, 566.605 121.210, 567.800 119.632 C 570.235 116.419, 570.109 115.926, 566.126 113.090 L 563.312 111.086 561.156 114.003 M 195.325 124.802 C 191.379 127.936, 187.812 130.842, 187.398 131.260 C 186.984 131.679, 187.785 133.254, 189.178 134.760 C 190.570 136.267, 193.622 140.078, 195.959 143.229 L 200.209 148.958 207.854 142.810 C 212.059 139.428, 215.887 136.329, 216.360 135.921 C 217.367 135.054, 205.194 118.975, 203.588 119.052 C 202.990 119.081, 199.271 121.668, 195.325 124.802 M 1.022 147.554 L 1 172.608 4.250 175.638 C 7.872 179.016, 19.933 184.522, 21.012 183.291 C 21.936 182.236, 31.175 158.831, 30.796 158.502 C 30.633 158.361, 28.642 157.309, 26.372 156.165 C 20.761 153.336, 15.388 146.963, 9.579 136.248 C 0.507 119.512, 1.048 118.798, 1.022 147.554 M 338.341 137.888 L 328.181 148.500 338.549 159.500 L 348.916 170.500 359.458 160.018 C 365.256 154.253, 370 149.070, 370 148.500 C 370 147.412, 349.819 126.899, 348.983 127.138 C 348.717 127.214, 343.928 132.051, 338.341 137.888 M 44.086 133.015 C 42.389 135.773, 41.002 138.361, 41.003 138.765 C 41.010 140.174, 51.956 145.447, 52.826 144.460 C 53.291 143.932, 54.870 141.395, 56.335 138.823 L 58.999 134.146 53.628 131.073 C 50.674 129.383, 48.012 128, 47.714 128 C 47.416 128, 45.783 130.257, 44.086 133.015 M 289.008 134.177 C 283.423 137.065, 280 141.993, 280 147.148 L 280 151 285.855 151 C 291.564 151, 291.733 150.921, 292.613 147.854 C 294.486 141.325, 300.225 141.526, 300.798 148.142 C 301.037 150.902, 300.093 153.055, 296.018 159.041 C 291.703 165.378, 290.982 167.102, 291.220 170.500 C 291.482 174.250, 291.712 174.520, 294.888 174.824 C 300.327 175.343, 302.682 174.338, 303.303 171.235 C 303.610 169.699, 306.117 165.522, 308.873 161.951 C 315.153 153.817, 316.983 147.870, 314.896 142.386 C 311.542 133.574, 298.297 129.375, 289.008 134.177 M 553.652 138.748 C 553.386 139.712, 552.892 142.541, 552.555 145.035 C 551.953 149.485, 552.003 149.588, 555.221 150.535 C 557.948 151.337, 558.500 151.987, 558.500 154.391 C 558.500 161.213, 552.586 160.307, 543.526 152.097 C 539.153 148.134, 535.879 146.012, 533.426 145.552 C 531.429 145.177, 529.589 145.078, 529.336 145.330 C 529.084 145.583, 528.623 148.248, 528.313 151.253 C 527.763 156.585, 527.820 156.741, 530.654 157.730 C 532.252 158.287, 535.796 161.080, 538.530 163.938 C 545.022 170.724, 549.028 173.116, 554.241 173.315 C 566.040 173.766, 574.411 157.854, 568.656 145.914 C 565.977 140.355, 554.696 134.967, 553.652 138.748 M 588.770 146.118 C 588.500 149.628, 588.416 152.662, 588.584 152.861 C 588.751 153.059, 591.768 153.453, 595.289 153.735 L 601.689 154.249 602.346 147.960 C 602.708 144.501, 602.842 141.509, 602.644 141.311 C 602.446 141.113, 599.354 140.678, 595.772 140.343 L 589.260 139.735 588.770 146.118 M 432 145 C 432 148.613, 432.245 149, 434.531 149 C 437.787 149, 438.962 151.824, 436.465 153.649 C 434.202 155.304, 431.872 154.645, 426.669 150.875 C 424.486 149.294, 421.417 148, 419.850 148 C 417.192 148, 417 148.269, 417 152 C 417 155.142, 417.375 156.001, 418.750 156.002 C 419.712 156.004, 423.148 157.804, 426.385 160.002 C 433.267 164.678, 436.644 165.012, 440.889 161.440 C 448.638 154.920, 444.352 141, 434.596 141 C 432.234 141, 432 141.361, 432 145 M 510.642 143.711 C 510.348 145.245, 509.832 148.334, 509.495 150.576 L 508.883 154.652 515.436 155.631 C 522.835 156.737, 522.395 157.132, 523.504 148.375 L 524.153 143.250 519.327 142.568 C 516.672 142.193, 513.752 141.669, 512.838 141.404 C 511.642 141.056, 511.026 141.703, 510.642 143.711 M 215.598 147.063 C 212.901 149.259, 209.559 151.883, 208.170 152.894 L 205.645 154.734 207.764 157.428 C 210.563 160.985, 211.927 168.465, 211.790 179.500 C 211.656 190.289, 212.972 195.480, 217.292 201.208 C 226.128 212.925, 244.034 212.968, 257.007 201.304 C 267.317 192.034, 270.231 179.975, 264.692 169.500 C 261.425 163.322, 259.392 160.683, 258.256 161.146 C 256.533 161.847, 243.066 172.516, 243.033 173.206 C 243.015 173.594, 244.125 175.569, 245.500 177.595 C 248.522 182.049, 248.645 184.355, 246 187 C 243.249 189.751, 238.485 189.576, 235.524 186.615 C 232.502 183.593, 231.344 179.006, 230.483 166.639 C 230.106 161.215, 229.420 155.465, 228.960 153.861 C 228.115 150.913, 222.396 142.970, 221.166 143.036 C 220.800 143.055, 218.294 144.868, 215.598 147.063 M 405 152 L 405 156 409.500 156 L 414 156 414 152 L 414 148 409.500 148 L 405 148 405 152 M 367.791 167.758 L 358.135 177.500 361.081 180.979 C 365.004 185.610, 367.800 193.384, 368.534 201.699 C 370.397 222.805, 373.366 232.102, 380.830 240.199 C 387.435 247.366, 392.752 249.500, 404 249.500 C 412.623 249.500, 414.127 249.203, 420.288 246.285 C 440.104 236.898, 451.887 215.233, 446.646 197.819 C 445.159 192.879, 438.750 182.918, 434.545 179.014 L 431.868 176.527 421.934 186.771 C 416.470 192.405, 412 197.266, 412 197.572 C 412 197.878, 413.296 199.220, 414.881 200.553 C 418.685 203.754, 421.231 209.230, 420.420 212.465 C 419.566 215.864, 414.487 220.001, 411.173 219.996 C 407.407 219.991, 402.681 216.837, 400.042 212.569 C 398.573 210.192, 396.602 203.009, 394.353 191.840 C 392.461 182.440, 390.068 173.118, 389.037 171.124 C 388.005 169.131, 384.976 165.366, 382.304 162.758 L 377.447 158.015 367.791 167.758 M 39.208 169.167 C 37.532 173.200, 35.014 179.554, 33.611 183.287 L 31.062 190.073 33.281 190.918 C 34.501 191.382, 40.594 193.900, 46.819 196.512 C 53.279 199.222, 58.505 200.883, 58.992 200.381 C 60.711 198.606, 70.080 173.681, 69.302 172.949 C 68.558 172.249, 47.524 163.469, 43.878 162.337 C 42.641 161.953, 41.532 163.575, 39.208 169.167 M 89.250 165.745 C 87.463 166.635, 86 167.986, 86 168.747 C 86 169.917, 87.586 173.692, 88.561 174.842 C 89.091 175.468, 96 172.612, 96 171.767 C 96 170.712, 93.204 163.978, 92.801 164.064 C 92.635 164.099, 91.037 164.856, 89.250 165.745 M 489.712 167.078 C 477.290 169.623, 465.311 178.432, 460.856 188.298 C 458.864 192.710, 458.507 195.120, 458.504 204.167 C 458.502 210.033, 458.725 215.041, 459 215.295 C 459.275 215.549, 465.896 214.822, 473.714 213.679 L 487.928 211.603 487.326 205.842 C 486.366 196.661, 489.493 192, 496.613 192 C 503.073 192, 506.420 197.248, 505.802 206.406 C 505.464 211.407, 504.305 214.653, 499.341 224.500 C 490.877 241.290, 489.625 245.503, 490.457 254.386 C 490.829 258.352, 491.440 262.074, 491.816 262.656 C 492.288 263.387, 496.607 263.085, 505.712 261.685 L 518.923 259.655 518.916 253.577 C 518.907 245.378, 519.927 242.452, 526.917 230.627 C 537.808 212.205, 539.953 204.393, 537.431 192.342 C 535.113 181.260, 528.015 173.420, 516.282 168.980 C 509.634 166.464, 497.092 165.566, 489.712 167.078 M 92.955 177.227 C 90.908 178.043, 90.396 178.950, 90.336 181.871 C 90.295 183.867, 89.930 188.200, 89.524 191.500 C 88.876 196.781, 89.045 197.825, 90.937 200.213 C 93.933 203.994, 98.652 204.690, 104.312 202.186 C 109.548 199.870, 111 197.686, 111 192.125 C 111 187.297, 110.253 186.701, 106.147 188.251 C 103.645 189.195, 103 190.015, 103 192.251 C 103 195.622, 100.496 196.924, 98.279 194.707 C 96.928 193.357, 96.875 192.313, 97.893 187.140 C 99.131 180.844, 98.574 175.926, 96.642 176.106 C 96.014 176.165, 94.355 176.669, 92.955 177.227 M 580.500 178.077 C 568.770 179.229, 558.231 186.451, 553.947 196.273 C 550.828 203.424, 550.167 215.597, 552.462 223.591 C 557.595 241.468, 571.198 254.933, 585.881 256.672 C 594.466 257.689, 612 252.498, 612 248.939 C 612 247.885, 609.418 241.835, 606.262 235.495 C 601.886 226.704, 600.166 224.123, 599.012 224.621 C 589.676 228.646, 587.182 229.196, 584.352 227.854 C 582.784 227.109, 580.675 224.813, 579.668 222.750 C 577.891 219.114, 577.891 218.886, 579.668 215.278 C 583.123 208.258, 590.232 206.360, 605.750 208.313 L 612 209.099 612 195.630 L 612 182.160 604.750 180.476 C 594.509 178.096, 587.432 177.396, 580.500 178.077 M 290 186.500 L 290 193 296.369 193 L 302.738 193 303.358 189.250 C 303.699 187.188, 303.983 184.262, 303.989 182.750 C 304 180.011, 303.972 180, 297 180 L 290 180 290 186.500 M 183.500 185.713 C 182.400 185.978, 180.274 187.349, 178.776 188.760 L 176.052 191.325 179.207 193.653 C 182.127 195.807, 182.496 195.861, 184.144 194.369 C 186.307 192.412, 189 193.231, 189 195.846 C 189 198.261, 187.622 199.387, 182 201.566 C 173.865 204.719, 172.114 207.534, 176.500 210.408 C 178.702 211.851, 179.268 211.875, 181.250 210.604 C 182.488 209.812, 185.484 208.640, 187.908 208 C 197.382 205.502, 200.837 197.525, 195.297 190.941 C 193.111 188.343, 187.013 184.610, 185.782 185.116 C 185.627 185.180, 184.600 185.449, 183.500 185.713 M 320.256 192.645 C 313.420 196.015, 310.994 204.559, 315.416 209.694 L 317.832 212.500 320.416 210.076 C 323.024 207.629, 323.844 205, 322 205 C 320.694 205, 320.702 201.302, 322.009 200.494 C 324.571 198.911, 327.018 201.256, 328.604 206.814 C 330.556 213.655, 333.633 217.550, 335.717 215.820 C 338.479 213.527, 339.131 211.135, 337.642 208.760 C 336.862 207.517, 335.908 204.700, 335.520 202.500 C 333.792 192.677, 327.903 188.875, 320.256 192.645 M 132.746 207.993 C 126.281 208.368, 120.823 208.860, 120.615 209.087 C 120.408 209.314, 120.473 216.162, 120.759 224.303 L 121.279 239.107 135.890 238.432 C 143.925 238.061, 150.868 237.422, 151.317 237.012 C 151.766 236.602, 151.813 229.682, 151.422 221.633 L 150.710 207 147.605 207.156 C 145.897 207.242, 139.211 207.619, 132.746 207.993 M 19.256 211.029 C 18.022 211.525, 16.120 213.399, 15.029 215.192 L 13.046 218.454 15.273 219.692 C 18.457 221.461, 20.314 221.282, 22.250 219.021 C 24.362 216.554, 27 217.409, 27 220.561 C 27 222.186, 25.539 224.023, 22.250 226.531 C 18.107 229.691, 15.150 233.196, 15.035 235.082 C 15.016 235.402, 16.676 236.179, 18.724 236.807 C 21.603 237.691, 22.618 237.672, 23.196 236.725 C 24.815 234.071, 25.638 233.311, 29.301 231.084 C 33.965 228.249, 36.327 224.811, 36.220 221.016 C 36.004 213.432, 26.782 208.003, 19.256 211.029 M 167.928 214.101 L 165.720 217.202 168.610 219.565 C 170.200 220.865, 171.807 221.944, 172.182 221.964 C 172.557 221.984, 173.873 220.582, 175.107 218.849 L 177.351 215.699 174.620 213.349 C 171.100 210.322, 170.577 210.381, 167.928 214.101 M 73.800 219.687 C 70.885 223.946, 68.167 227.960, 67.761 228.607 C 67.283 229.368, 70.178 231.931, 75.961 235.865 L 84.900 241.946 90.288 234.223 C 93.251 229.975, 95.978 225.972, 96.349 225.327 C 96.901 224.367, 86.787 216.368, 80.300 212.634 C 79.536 212.195, 77.170 214.762, 73.800 219.687 M 339.561 216.253 L 336.982 219.500 340.039 222.279 C 343.412 225.345, 343.976 225.247, 346.943 221.080 L 348.979 218.221 345.560 215.613 L 342.141 213.005 339.561 216.253 M 267.811 216.470 C 261.520 218.203, 256.862 221.214, 252.095 226.630 C 248.147 231.115, 241.276 245.606, 242.509 246.847 C 242.866 247.206, 249.198 249.347, 256.580 251.605 L 270.001 255.709 271.093 251.605 C 271.693 249.347, 273.291 246.037, 274.643 244.250 C 276.770 241.439, 277.702 241, 281.551 241 C 288.525 241, 291.951 245.752, 290.670 253.647 C 289.818 258.897, 286.083 263.105, 273.153 273.384 C 258.187 285.282, 255.739 288.149, 253.009 296.971 C 251.791 300.907, 250.953 304.272, 251.147 304.448 C 251.859 305.094, 274.827 312, 276.265 312 C 277.096 312, 278 310.751, 278.317 309.163 C 279.403 303.737, 286.348 296.614, 298.339 288.628 C 316.997 276.204, 323.454 267.050, 323.484 252.985 C 323.498 246.491, 323.053 244.562, 320.207 238.775 C 311.707 221.492, 287.301 211.102, 267.811 216.470 M 60.147 240.087 C 57.264 243.735, 52.530 246.215, 44 248.545 C 26.452 253.338, 17.778 261.705, 17.604 274.005 C 17.394 288.828, 33.288 304.206, 48.808 304.196 C 56.832 304.191, 62.123 301.740, 68.004 295.306 C 70.758 292.292, 72.798 289.482, 72.537 289.060 C 71.830 287.916, 57.306 278, 56.337 278 C 55.876 278, 54.243 279.575, 52.707 281.500 C 49.558 285.447, 45.981 286.076, 42.109 283.364 C 40.113 281.965, 39.852 281.130, 40.319 277.614 C 41.039 272.185, 44.411 269.434, 55.666 265.092 C 60.525 263.218, 66.165 260.858, 68.200 259.847 C 72.094 257.914, 79.359 249.389, 78.415 247.862 C 77.870 246.981, 63.369 236.948, 62.795 237.055 C 62.633 237.086, 61.441 238.450, 60.147 240.087 M 11.970 242.592 C 10.608 246.718, 11.224 247.695, 15.760 248.602 C 18.578 249.166, 19.079 248.923, 19.979 246.556 C 21.580 242.345, 21.227 241.275, 17.851 240.098 C 13.405 238.548, 13.288 238.598, 11.970 242.592 M 194.427 242.309 C 189.690 246.384, 190.199 258.533, 195.238 261.647 C 197.297 262.920, 206.209 263.809, 205.024 262.624 C 204.461 262.061, 204 260.145, 204 258.366 C 204 255.582, 203.618 255.089, 201.250 254.816 C 199.318 254.594, 198.408 253.856, 198.192 252.336 C 197.694 248.841, 201.231 248.501, 207.628 251.430 C 214.158 254.420, 219.562 254.906, 218.607 252.418 C 218.273 251.548, 218 249.748, 218 248.418 C 218 246.659, 217.450 246, 215.981 246 C 214.871 246, 211.432 244.650, 208.340 243 C 201.594 239.400, 198.016 239.222, 194.427 242.309 M 225 244.943 C 221.600 245.484, 221.510 245.615, 221.849 249.500 C 222.041 251.700, 222.318 253.627, 222.465 253.783 C 222.613 253.939, 224.556 253.775, 226.785 253.418 C 230.793 252.777, 230.831 252.731, 230.288 249.135 C 229.594 244.535, 229.254 244.266, 225 244.943 M 351.194 255.004 C 350.537 260.606, 350.217 265.543, 350.484 265.975 C 350.751 266.406, 355.248 267.081, 360.478 267.473 C 365.707 267.865, 370.321 268.256, 370.731 268.343 C 371.478 268.501, 372.146 264.752, 373.398 253.370 L 374.072 247.239 368.536 246.620 C 365.491 246.279, 360.613 245.734, 357.694 245.409 L 352.389 244.818 351.194 255.004 M 449.775 247.559 C 446.162 249.520, 444.293 252.919, 446.147 254.161 C 450.530 257.096, 451.331 257.267, 452.595 255.539 C 454.416 253.049, 457.500 253.976, 457.500 257.014 C 457.500 259.025, 456.381 260.094, 451.646 262.609 C 443.231 267.077, 441.859 269.870, 447.026 272.011 C 449.572 273.065, 450.324 273.019, 451.776 271.719 C 452.724 270.870, 456.049 269.052, 459.165 267.680 C 465.357 264.953, 467 262.879, 467 257.788 C 467 253.483, 464.839 250.469, 459.974 247.987 C 455.382 245.644, 453.453 245.563, 449.775 247.559 M 161.413 256.553 C 160.597 258.507, 159.684 261.330, 159.385 262.825 C 158.874 265.381, 159.204 265.675, 164.893 267.721 C 168.221 268.919, 171.122 269.584, 171.339 269.199 C 172.586 266.989, 175.109 257.776, 174.605 257.272 C 174.077 256.744, 164.114 253, 163.237 253 C 163.051 253, 162.230 254.599, 161.413 256.553 M 549.500 254.791 C 544 255.581, 539.350 256.363, 539.167 256.530 C 538.630 257.019, 541.177 276.431, 541.881 277.212 C 542.479 277.875, 561.932 275.401, 562.779 274.555 C 563.331 274.002, 560.810 254.612, 560.097 253.928 C 559.769 253.613, 555 254.001, 549.500 254.791 M 90.991 265.242 C 90.171 266.475, 89.168 268, 88.762 268.632 C 88.319 269.321, 89.388 270.821, 91.435 272.383 L 94.846 274.985 97.100 271.339 L 99.353 267.693 96.426 265.351 C 92.837 262.480, 92.827 262.480, 90.991 265.242 M 586.333 269.417 C 580.933 271.832, 579 274.491, 579 279.500 C 579 283.381, 579.284 284, 581.066 284 C 584.529 284, 587 282.098, 587 279.433 C 587 276.322, 589.617 275.189, 591.788 277.359 C 593.298 278.869, 593.295 279.463, 591.746 285.275 C 589.997 291.839, 590.310 296, 592.552 296 C 595.581 296, 599.189 293.935, 598.644 292.514 C 598.336 291.712, 598.999 288.006, 600.117 284.278 C 601.689 279.038, 601.916 276.888, 601.120 274.802 C 599.123 269.575, 591.878 266.937, 586.333 269.417 M 100.161 272.996 C 98.120 275.757, 98.067 276.172, 99.477 278.324 C 100.318 279.608, 101.690 282.961, 102.526 285.774 C 105.408 295.480, 113.770 298.163, 120.419 291.515 C 124.654 287.280, 125.814 282.476, 123.625 278.243 C 121.344 273.830, 118.960 273.313, 116.296 276.653 C 114.265 279.201, 114.212 279.577, 115.662 281.179 C 117.623 283.346, 116.739 286, 114.054 286 C 111.802 286, 109.778 283.254, 108.082 277.897 C 107.455 275.915, 105.914 273.329, 104.658 272.148 L 102.374 270.003 100.161 272.996 M 155.114 274.060 C 153.870 275.743, 150.489 278.631, 147.601 280.479 C 136.236 287.748, 133.058 294.513, 137.140 302.741 C 143.848 316.260, 163.050 317.472, 169.608 304.791 C 171.657 300.828, 171.003 299.617, 166 298.118 C 163.686 297.425, 161.228 296.641, 160.539 296.377 C 159.825 296.103, 158.733 297.231, 158 299.001 C 156.901 301.654, 156.263 302.061, 153.615 301.803 C 151.555 301.601, 150.400 300.887, 150.170 299.671 C 149.387 295.544, 151.204 292.820, 158.089 287.797 C 169.036 279.809, 170.659 275.094, 163.322 272.594 C 157.343 270.557, 157.759 270.483, 155.114 274.060 M 505.507 273.170 C 498.360 274.261, 492.363 275.304, 492.180 275.487 C 491.282 276.385, 495.566 304.280, 496.666 304.702 C 497.861 305.161, 525.044 301.290, 525.777 300.557 C 526.095 300.238, 524.068 284.264, 522.438 274.250 C 521.820 270.451, 522.883 270.519, 505.507 273.170 M 439.034 276.177 C 437.919 278.004, 437.006 279.754, 437.004 280.065 C 437 280.692, 444.126 284.257, 444.455 283.793 C 449.379 276.854, 449.409 276.975, 441.780 273.209 C 441.384 273.013, 440.148 274.349, 439.034 276.177 M 0 288.500 C 0 302.069, 0.120 303.006, 1.750 302.127 C 8.989 298.225, 11.191 288.414, 6.589 280.561 C 5.130 278.073, 3.051 275.563, 1.969 274.983 C 0.052 273.958, 0 274.317, 0 288.500 M 349.407 277.637 C 348.112 283.029, 345.751 286.508, 337.881 294.627 C 332.761 299.908, 329.088 304.751, 327.390 308.459 C 321.630 321.042, 326.386 333.619, 339.312 339.982 C 356.883 348.632, 376.634 342.101, 381.389 326.068 C 383.859 317.740, 383.604 316.204, 379.627 315.458 C 377.771 315.110, 373.175 314.752, 369.412 314.662 L 362.570 314.500 361.912 318.438 C 361.230 322.515, 358.097 326, 355.112 326 C 352.167 326, 349.098 323.038, 348.447 319.568 C 347.578 314.938, 349.549 311.240, 358.512 300.687 C 367.567 290.025, 367.791 289.626, 368.604 282.712 C 369.359 276.285, 369.665 276.490, 357.797 275.449 L 350.095 274.774 349.407 277.637 M 211.923 280.923 C 209.959 282.887, 209 284.856, 209 286.923 C 209 289.837, 209.208 290, 212.930 290 C 216.245 290, 216.911 289.647, 217.180 287.750 C 217.613 284.704, 221.581 284.104, 222.484 286.948 C 222.921 288.327, 222.118 290.798, 220.070 294.378 C 218.381 297.329, 217 300.926, 217 302.372 C 217 304.771, 217.348 305, 221 305 C 224.349 305, 225 304.671, 225 302.976 C 225 301.863, 226.575 298.662, 228.500 295.864 C 233.005 289.314, 233.171 285.017, 229.077 280.923 C 226.535 278.382, 225.416 278, 220.500 278 C 215.584 278, 214.465 278.382, 211.923 280.923 M 555.500 284.112 C 552.750 284.601, 549.038 285.246, 547.250 285.546 C 544.248 286.049, 544 286.381, 544 289.896 C 544 295.200, 542.447 299.252, 536.871 308.500 C 534.218 312.900, 531.442 318.900, 530.702 321.833 C 529.039 328.427, 529.979 336.612, 532.952 341.422 C 537.578 348.907, 549.838 353.882, 560.554 352.623 C 576.826 350.710, 585.914 342.031, 586.708 327.644 C 587.268 317.506, 587.198 317.452, 575.510 318.999 L 565.814 320.282 566.251 323.891 C 566.866 328.977, 565.338 332.687, 562.172 333.790 C 558.305 335.138, 555.139 333.577, 553.427 329.479 C 551.516 324.907, 552.456 321.283, 559.048 307.804 C 564.041 297.593, 565.140 291.857, 563.370 285.250 C 562.714 282.804, 562.796 282.816, 555.500 284.112 M 395.615 290.088 C 389.664 294.769, 388.379 301.920, 392.589 306.923 C 394.013 308.615, 395.475 309.994, 395.839 309.988 C 396.203 309.981, 397.473 308.472, 398.663 306.635 C 400.778 303.367, 400.784 303.260, 398.933 301.675 C 396.518 299.607, 397.474 297, 400.649 297 C 402.677 297, 403.565 298.073, 405.966 303.424 C 407.551 306.958, 409.752 310.332, 410.857 310.923 C 412.561 311.835, 413.195 311.534, 415.046 308.935 C 417.212 305.894, 417.214 305.855, 415.281 303.686 C 414.210 302.484, 412.548 299.367, 411.588 296.761 C 408.545 288.497, 401.421 285.521, 395.615 290.088 M 452.094 299.108 C 448.199 300.286, 438 306.567, 438 307.789 C 438 309.072, 450.096 323, 451.211 323 C 451.761 323, 453.548 321.875, 455.182 320.500 C 458.888 317.382, 462.014 317.321, 464.826 320.314 C 467.587 323.254, 467.600 326.979, 464.858 329.922 C 461.765 333.242, 457.475 334.745, 448.982 335.485 C 435.664 336.646, 430.832 337.962, 425.750 341.813 C 423.137 343.792, 421 345.577, 421 345.780 C 421 345.983, 423.798 349.432, 427.218 353.445 L 433.435 360.740 437.208 358.244 C 440.530 356.045, 442.627 355.636, 454.741 354.818 C 470.374 353.762, 476.609 351.677, 482.356 345.584 C 490.866 336.561, 489.630 320.887, 479.496 309.312 C 472.127 300.896, 460.500 296.566, 452.094 299.108 M 595.128 299.076 C 593.098 299.889, 592.848 300.489, 593.396 303.232 C 594.309 307.793, 595.284 308.388, 599.401 306.900 C 603.437 305.440, 603.416 305.490, 601.902 301.149 C 600.755 297.858, 599.291 297.410, 595.128 299.076 M 78.286 320.730 C 75.993 327.754, 73.978 334.351, 73.808 335.392 C 73.546 336.999, 75.617 337.995, 87.570 342.007 L 101.641 346.730 106.415 332.293 C 109.041 324.352, 111.034 317.725, 110.845 317.564 C 110.655 317.404, 104.650 315.346, 97.500 312.990 C 90.350 310.634, 84.040 308.538, 83.478 308.333 C 82.915 308.128, 80.579 313.707, 78.286 320.730 M 220.167 308.736 C 216.787 309.038, 215.962 309.458, 216.417 310.643 C 216.737 311.479, 217 313.252, 217 314.582 C 217 316.736, 217.436 317, 221 317 L 225 317 225 312.500 C 225 310.025, 224.887 308.079, 224.750 308.175 C 224.613 308.271, 222.550 308.524, 220.167 308.736 M 417.666 311.234 L 415.832 314.454 418.666 316.722 C 420.225 317.970, 421.807 318.992, 422.182 318.995 C 422.557 318.998, 423.874 317.581, 425.109 315.847 L 427.354 312.694 424.427 310.352 C 420.602 307.292, 419.855 307.389, 417.666 311.234 M 178.497 316.181 C 178.226 316.906, 176.220 323.109, 174.039 329.964 C 170.057 342.483, 170.031 343.940, 173.790 343.985 C 176.746 344.020, 183.137 348.230, 184.107 350.780 C 186.546 357.197, 182.031 364, 175.333 364 C 167.869 364, 162.231 359.375, 150.790 343.868 C 142.025 331.986, 138.235 328.718, 129.541 325.547 C 125.341 324.016, 121.752 322.928, 121.566 323.131 C 121.282 323.441, 115.803 340.254, 113.543 347.750 C 113.037 349.431, 113.271 350, 114.472 350 C 117.440 350, 123.605 353.820, 127.380 357.999 C 129.439 360.278, 133.951 366.498, 137.407 371.822 C 144.768 383.160, 151.827 390.097, 159.782 393.807 C 183.225 404.742, 210.278 382.352, 210.297 352 C 210.307 336.365, 203.694 325.727, 189.939 319.251 C 181.207 315.140, 179.098 314.574, 178.497 316.181 M 240.787 329.250 C 238.275 337.087, 236.302 343.594, 236.403 343.709 C 236.826 344.194, 263.021 352, 264.225 352 C 266.031 352, 275.314 324.029, 273.682 323.506 C 266.037 321.053, 246.234 315, 245.853 315 C 245.579 315, 243.299 321.413, 240.787 329.250 M 24.705 319.760 C 22.646 320.041, 22.039 320.584, 22.398 321.821 C 22.666 322.744, 23.175 325.554, 23.529 328.064 C 24.133 332.357, 24.335 332.604, 26.924 332.224 C 29.813 331.800, 33 334.043, 33 336.500 C 33 338.633, 30.090 341, 27.467 341 C 26.152 341, 21.758 339.425, 17.703 337.500 C 10.624 334.140, 2.835 332.840, 1.615 334.814 C 1.339 335.261, 1.427 337.829, 1.812 340.520 C 2.481 345.196, 2.680 345.448, 6.286 346.197 C 8.362 346.628, 13.347 348.785, 17.365 350.991 C 22.848 354, 25.797 355, 29.187 355 C 37.949 355, 44 348.089, 44 338.081 C 44 325.906, 35.918 318.232, 24.705 319.760 M 307.683 323.809 L 304.992 326.618 308.018 329.517 L 311.045 332.417 314.172 329.289 L 317.300 326.162 314.400 323.613 C 312.805 322.210, 311.247 321.049, 310.937 321.032 C 310.627 321.014, 309.163 322.264, 307.683 323.809 M 300.638 330.496 C 299.614 331.259, 296.343 332.188, 293.368 332.560 C 283.284 333.820, 279.253 340.819, 284.097 348.656 C 287.999 354.971, 295.692 356.889, 300.507 352.747 L 303.126 350.495 300.056 347.554 C 297.678 345.276, 296.718 344.882, 295.793 345.807 C 295.137 346.463, 293.760 347, 292.734 347 C 291.287 347, 290.938 346.381, 291.184 344.250 C 291.502 341.482, 293.050 340.669, 302 338.572 C 303.375 338.249, 305.384 337.306, 306.464 336.476 C 308.386 334.998, 308.365 334.904, 305.464 332.037 C 302.827 329.431, 302.295 329.261, 300.638 330.496 M 56.693 332.181 C 54.189 333.094, 53.959 333.544, 54.561 336.352 C 55.537 340.910, 55.860 341.187, 59.345 340.453 C 63.832 339.509, 64.371 338.653, 63.030 334.592 C 61.775 330.788, 61.158 330.554, 56.693 332.181 M 603.500 340.503 C 601.300 341.281, 598.504 343.068, 597.286 344.473 C 594.593 347.580, 592.285 354.712, 593.582 355.918 C 594.087 356.388, 597.087 357.081, 600.250 357.458 C 605.827 358.123, 606 358.072, 606 355.772 C 606 352.948, 607.715 351, 610.200 351 C 611.733 351, 612 350.111, 612 345 C 612 339.431, 611.838 339.003, 609.750 339.044 C 608.513 339.068, 605.700 339.725, 603.500 340.503 M 59.267 344.025 C 57.953 344.553, 57.252 345.493, 57.564 346.305 C 57.855 347.065, 57.173 350.024, 56.047 352.881 C 53.268 359.931, 53.382 364.473, 56.414 367.505 C 61.316 372.407, 69.618 371.620, 74.526 365.787 C 76.668 363.241, 77.088 361.930, 76.642 359.181 C 76.336 357.295, 75.931 355.598, 75.742 355.409 C 75.553 355.220, 73.719 355.580, 71.666 356.210 C 69.288 356.940, 67.988 357.926, 68.082 358.928 C 68.406 362.363, 67.945 363.131, 65.750 362.820 C 62.822 362.404, 62.319 358.446, 64.413 352.302 C 67.017 344.659, 65.151 341.658, 59.267 344.025 M 404.797 357.661 L 397.095 364.246 403.790 372.123 C 407.472 376.455, 410.846 380, 411.287 380 C 411.728 380, 415.648 377.020, 419.999 373.379 L 427.909 366.757 421.212 358.879 C 417.529 354.545, 414.062 351.017, 413.508 351.038 C 412.953 351.059, 409.034 354.039, 404.797 357.661 M 327.368 353.839 C 314.634 358.240, 304.637 367.009, 298.708 378.976 C 296.047 384.349, 295.440 386.859, 295.148 393.710 C 294.830 401.171, 295.081 402.571, 297.745 408.234 C 299.368 411.680, 302.860 416.896, 305.506 419.824 L 310.318 425.147 320.614 414.887 L 330.910 404.626 326.989 400.372 C 322.362 395.352, 321.315 392.069, 323.025 387.941 C 324.657 384, 327.629 382, 331.854 382 C 334.532 382, 336.176 382.912, 339.516 386.253 C 344.313 391.049, 345.100 393.256, 348.125 410.388 C 349.280 416.926, 350.962 424.576, 351.862 427.388 L 353.500 432.500 365.018 432.780 L 376.536 433.059 380.456 429.045 L 384.377 425.030 382.373 422.765 C 377.086 416.788, 374.633 409.386, 373.503 396 C 371.956 377.660, 368.526 368.352, 360.406 360.460 C 352.223 352.508, 338.928 349.843, 327.368 353.839 M 528 360.999 C 523.325 363.187, 519.079 365.123, 518.565 365.300 C 517.609 365.631, 526.438 385, 527.545 385 C 529.644 385, 546 376.465, 546 375.370 C 546 373.785, 537.794 356.995, 537.027 357.011 C 536.737 357.017, 532.675 358.812, 528 360.999 M 607 367.465 C 604.104 370.905, 602.270 374.180, 601.855 376.655 C 601.501 378.770, 601.276 380.562, 601.355 380.637 C 601.435 380.712, 603.862 381.092, 606.750 381.481 L 612 382.188 612 372.094 C 612 366.542, 611.888 362.027, 611.750 362.060 C 611.612 362.093, 609.475 364.525, 607 367.465 M 225.196 365.488 C 220.970 369.044, 218.999 373.872, 219.005 380.651 C 219.014 390.975, 225.173 397.981, 234.250 397.993 L 239 398 239 393.082 C 239 386.774, 238.329 385.101, 236.038 385.700 C 233.272 386.424, 230 384.237, 230 381.665 C 230 375.613, 235.388 375.577, 246.447 381.557 C 253.348 385.288, 255.475 386.002, 258.188 385.495 L 261.500 384.875 261.161 378.938 C 260.837 373.262, 260.705 373, 258.161 372.994 C 255.305 372.987, 253.759 372.265, 244.559 366.635 C 236.946 361.977, 229.867 361.558, 225.196 365.488 M 24.625 367.436 C 20.317 369.008, 14.581 374.065, 12.415 378.200 C 10.397 382.052, 10.667 388.426, 13.045 393.089 C 15.948 398.778, 17.493 398.978, 22.200 394.271 C 26.180 390.291, 26.199 390.234, 24.497 387.636 C 21.947 383.744, 23.172 380, 26.996 380 C 31.040 380, 32.660 382.822, 34.590 393.223 C 35.895 400.261, 36.707 402.303, 39.115 404.610 L 42.049 407.421 46.132 403.339 C 50.145 399.326, 50.186 399.213, 48.545 396.710 C 47.628 395.309, 46.249 389.985, 45.482 384.878 C 44.637 379.256, 43.355 374.613, 42.231 373.108 C 37.764 367.125, 31.240 365.023, 24.625 367.436 M 466.224 369.410 C 461.498 370.951, 457.178 373.510, 455.227 375.925 C 448.683 384.026, 447.563 396.047, 452.368 406.610 C 457.400 417.673, 467.275 425, 477.151 425 C 480.644 425, 491.428 421.906, 492.833 420.500 C 493.528 419.805, 484.861 402, 483.828 402 C 483.410 402, 481.490 402.753, 479.560 403.673 C 475.361 405.675, 471.637 404.491, 469.858 400.588 C 466.058 392.247, 475.475 388.122, 491.538 391.092 C 501.593 392.950, 509.940 392.608, 514.750 390.140 C 517.087 388.941, 519 387.750, 519 387.494 C 519 387.239, 517.096 383.190, 514.768 378.497 C 511.570 372.048, 510.166 370.124, 509.018 370.619 C 502.788 373.310, 499.984 373.390, 490.673 371.145 C 478.351 368.175, 471.504 367.689, 466.224 369.410 M 98 371.967 C 86.355 374.236, 79.584 382.023, 77.438 395.612 L 76.789 399.723 85.144 400.429 C 89.740 400.818, 94.450 401.363, 95.612 401.641 C 97.482 402.090, 97.784 401.613, 98.250 397.471 C 98.836 392.276, 100.192 390.452, 104.200 389.470 C 106.300 388.955, 107.465 389.374, 109.450 391.359 C 114.266 396.175, 112.604 401.948, 103.221 413 C 96.133 421.350, 93.346 425.708, 92.512 429.750 L 91.841 433 102.385 433 C 112.301 433, 113 432.866, 114.119 430.750 C 114.772 429.512, 118.685 424.900, 122.814 420.500 C 132.153 410.546, 134.977 404.852, 134.990 395.946 C 135.005 385.733, 129.961 378.967, 118.578 373.932 C 113.765 371.802, 103.751 370.846, 98 371.967 M 270.618 371.740 L 265.736 372.120 266.418 378.777 C 266.793 382.438, 267.190 385.466, 267.300 385.507 C 267.410 385.547, 270.313 385.409, 273.750 385.201 L 280 384.822 280 381.036 C 280 374.675, 278.922 370.981, 277.125 371.180 C 276.231 371.279, 273.303 371.531, 270.618 371.740 M 573.142 380.794 C 571.095 381.118, 570.864 381.569, 571.392 384.209 C 571.726 385.881, 572 387.644, 572 388.125 C 572 388.606, 573.139 389, 574.531 389 C 577.642 389, 578.828 391.600, 576.691 393.737 C 575.249 395.180, 574.612 395.129, 569.466 393.160 C 564.045 391.085, 558.948 390.386, 557.777 391.556 C 557.472 391.862, 557.697 393.662, 558.279 395.556 C 559.067 398.124, 559.898 399, 561.547 399 C 562.763 399, 566.292 400.160, 569.388 401.577 C 577.469 405.277, 582.210 403.838, 584.854 396.883 C 586.049 393.742, 584.628 386.352, 582.345 383.829 C 580.409 381.690, 576.216 380.307, 573.142 380.794 M 599.499 389.638 C 599.150 391.762, 598.638 394.721, 598.361 396.213 C 597.808 399.192, 598.064 399.316, 607.250 400.507 L 612 401.123 612 394.061 L 612 387 609.125 387 C 607.544 387, 604.874 386.725, 603.191 386.388 C 600.273 385.805, 600.103 385.954, 599.499 389.638 M 548.250 392.706 C 545.911 393.156, 545.430 395.269, 546.638 399.778 C 547.033 401.255, 547.820 401.903, 548.874 401.621 C 549.768 401.382, 551.690 400.922, 553.145 400.600 C 555.693 400.036, 555.753 399.866, 554.774 396.007 C 553.741 391.937, 553.327 391.728, 548.250 392.706 M 424.630 398.250 C 423.530 402.357, 423.938 403.852, 426.250 404.180 C 428.979 404.568, 429.898 408.442, 427.480 409.369 C 425.596 410.092, 422.964 408.858, 417.856 404.855 C 415.852 403.285, 413.039 402, 411.606 402 C 409.258 402, 409 402.374, 409 405.781 C 409 408.948, 409.446 409.756, 411.750 410.759 C 413.262 411.418, 416.447 413.541, 418.828 415.478 C 427.554 422.579, 436 418.158, 436 406.489 C 436 402.691, 435.468 401.314, 433.077 398.923 C 429.490 395.336, 425.497 395.018, 424.630 398.250 M 397 404.488 C 397 408.593, 397.218 409, 399.418 409 C 400.748 409, 402.487 409.250, 403.282 409.555 C 404.347 409.963, 404.903 409.007, 405.397 405.921 C 405.765 403.618, 405.939 401.631, 405.783 401.506 C 405.627 401.381, 403.587 400.985, 401.250 400.627 L 397 399.976 397 404.488 M 217.750 402.572 C 216.238 403.393, 215 404.463, 215 404.951 C 215 406.099, 218.346 411.987, 219 411.990 C 219.275 411.991, 220.959 411.103, 222.743 410.015 L 225.986 408.038 224.308 404.519 C 222.446 400.615, 221.742 400.406, 217.750 402.572 M 48.986 407.514 L 44.555 412.029 49.278 416.751 L 54 421.474 58.722 416.751 L 63.445 412.029 59.014 407.514 C 56.577 405.032, 54.321 403, 54 403 C 53.679 403, 51.423 405.032, 48.986 407.514 M 255.985 407.399 C 253.518 408.718, 251.500 410.272, 251.500 410.853 C 251.500 411.433, 253.237 413.986, 255.359 416.526 L 259.219 421.143 261.600 418.906 C 263.635 416.995, 264.345 416.836, 266.490 417.814 C 268.141 418.566, 269 419.767, 269 421.324 C 269 425.246, 265.851 427.081, 257.330 428.123 C 253.023 428.650, 247.925 429.850, 246 430.791 C 242.549 432.476, 242.758 432.504, 260.927 432.773 C 271.061 432.924, 279.740 432.660, 280.213 432.187 C 281.548 430.852, 282.313 424.481, 281.596 420.661 C 280.236 413.412, 270.558 405, 263.577 405 C 261.868 405, 258.451 406.079, 255.985 407.399 M 194 407.760 C 187.304 409.966, 185.714 419.327, 191.011 425.360 C 194.592 429.438, 197.979 430.492, 202.601 428.967 C 206.543 427.666, 206.530 427.705, 204.298 423.928 C 202.952 421.649, 201.968 421.094, 199.587 421.274 C 197.311 421.445, 196.481 421.029, 196.180 419.566 C 195.517 416.341, 198.567 415.038, 205.374 415.639 C 213.361 416.345, 215.990 414.768, 213.800 410.588 C 212.418 407.949, 211.988 407.817, 203.927 407.548 C 199.292 407.393, 194.825 407.489, 194 407.760 M 16.329 413.458 C 10.254 416.100, 9.322 421.150, 14.609 422.772 C 17.847 423.766, 18.271 423.680, 18.726 421.940 C 19.049 420.705, 20.099 420, 21.617 420 C 25.826 420, 24.699 424.246, 19.250 428.916 L 14.500 432.987 21.063 432.994 C 26.926 432.999, 27.905 432.707, 30.242 430.250 C 35.808 424.398, 34.279 417.392, 26.684 413.943 C 21.727 411.693, 20.517 411.636, 16.329 413.458 M 147.898 414.285 C 143.805 417.037, 141.806 422.145, 143.227 426.221 C 144.576 430.092, 145.585 430.432, 148.841 428.113 C 151.138 426.478, 151.584 425.528, 151.221 423.050 C 150.823 420.342, 151.054 420, 153.280 420 C 156.280 420, 157 421.563, 157 428.082 L 157 433 160.750 432.999 L 164.500 432.997 164.817 426.059 C 165.284 415.863, 162.749 412.089, 155.398 412.032 C 152.742 412.011, 150.098 412.805, 147.898 414.285 M 543.500 412.939 C 538.129 413.856, 531.247 417.053, 527.101 420.556 C 523.632 423.488, 518 430.642, 518 432.117 C 518 432.567, 530.341 432.941, 545.425 432.948 L 572.849 432.962 572.049 430.173 C 568.465 417.674, 556.847 410.661, 543.500 412.939 M 594.367 413.772 C 589.851 417.430, 588.627 424.444, 591.526 430.050 C 592.905 432.717, 593.529 433, 598.026 433 C 602.861 433, 603 432.918, 603 430.066 C 603 427.610, 602.553 427.081, 600.250 426.816 C 597.120 426.456, 596.429 423.394, 599.098 421.710 C 600.760 420.661, 603.589 421.695, 609.250 425.420 L 612 427.230 612 422.709 C 612 418.435, 611.745 418.020, 607.329 415.094 C 602.069 411.610, 597.599 411.154, 594.367 413.772" stroke="none" fill="#160f10" fill-rule="evenodd"/></svg>