<?xml version="1.0" standalone="no"?>
<!DOCTYPE svg PUBLIC "-//W3C//DTD SVG 20010904//EN"
 "http://www.w3.org/TR/2001/REC-SVG-20010904/DTD/svg10.dtd">
<svg version="1.0" xmlns="http://www.w3.org/2000/svg"
 width="171.000000pt" height="68.000000pt" viewBox="0 0 171.000000 68.000000"
 preserveAspectRatio="xMidYMid meet">

<g transform="translate(0.000000,68.000000) scale(0.100000,-0.100000)"
fill="#000000" stroke="none">
<path d="M60 510 l0 -70 34 0 c31 0 34 3 40 35 l7 35 64 0 c36 0 65 -3 65 -6
0 -3 -49 -74 -110 -158 -74 -103 -110 -161 -110 -179 l0 -27 175 0 175 0 0 71
0 70 -32 -3 c-29 -3 -33 -7 -36 -36 l-3 -32 -74 0 -74 0 114 158 c80 109 115
165 115 185 l0 27 -175 0 -175 0 0 -70z"/>
<path d="M1136 550 c-4 -22 -15 -35 -41 -47 -30 -14 -35 -22 -35 -50 0 -29 3
-33 25 -33 l25 0 0 -116 c0 -114 0 -116 29 -145 24 -24 38 -29 76 -29 25 0 61
7 80 14 33 14 34 17 23 40 -9 21 -18 26 -48 26 -54 0 -60 12 -60 117 l0 93 50
0 50 0 0 35 0 35 -50 0 -50 0 0 45 c0 44 0 45 -34 45 -29 0 -34 -4 -40 -30z"/>
<path d="M525 476 c-64 -29 -95 -85 -95 -169 1 -120 71 -185 189 -174 57 5
111 24 111 38 0 4 -4 19 -10 33 -8 23 -12 24 -42 15 -78 -22 -131 -5 -140 46
-3 19 3 20 101 23 l104 3 -6 52 c-6 64 -21 96 -54 121 -34 25 -117 31 -158 12z
m99 -78 c28 -39 21 -48 -39 -48 -47 0 -54 2 -48 18 18 52 61 67 87 30z"/>
<path d="M766 475 c-11 -29 -6 -42 19 -53 24 -11 25 -15 25 -112 0 -98 -1
-101 -25 -110 -18 -7 -25 -17 -25 -35 0 -25 0 -25 95 -25 95 0 95 0 95 25 0
18 -7 28 -25 35 -24 9 -25 13 -25 93 0 99 12 116 85 124 43 5 45 7 45 39 0 33
-1 34 -40 34 -30 0 -47 -7 -66 -25 -30 -31 -32 -31 -36 -2 -3 19 -10 22 -59
25 -45 2 -58 0 -63 -13z"/>
<path d="M1415 476 c-64 -29 -95 -85 -95 -170 0 -108 64 -176 165 -176 116 1
177 65 177 186 0 71 -19 113 -65 147 -34 26 -138 34 -182 13z m98 -62 c7 -7
-74 -133 -85 -134 -12 0 -10 53 3 89 13 37 62 64 82 45z m29 -183 c-19 -26
-72 -42 -72 -22 0 5 19 40 43 78 l42 68 3 -49 c2 -37 -2 -56 -16 -75z"/>
</g>
</svg>
